<svg width="64" height="64" viewBox="0 0 64 64" fill="none" xmlns="http://www.w3.org/2000/svg">
<path d="M29.6724 53.8086C29.1786 53.7424 28.6848 53.658 28.1969 53.5617C28.0223 53.5255 27.8476 53.4834 27.673 53.4472C27.4923 53.4051 27.3177 53.3629 27.143 53.3147C25.975 53.0173 24.8346 52.6204 23.7344 52.1284C23.6079 52.0741 23.4814 52.0139 23.361 51.9597C23.2707 51.9176 23.1863 51.8814 23.108 51.8393C22.813 51.7007 22.5239 51.5502 22.2408 51.3996C21.9156 51.225 21.5964 51.0443 21.2833 50.8516C21.0846 50.7312 20.8858 50.6047 20.6931 50.4782C20.4944 50.3518 20.3017 50.2253 20.115 50.0928C19.9222 49.9603 19.7355 49.8278 19.5489 49.6893C19.3622 49.5508 19.1755 49.4062 18.9948 49.2617C18.8141 49.1172 18.6395 48.9726 18.4588 48.8221C18.3083 48.6956 18.1637 48.5691 18.0131 48.4366C17.8144 48.262 17.6157 48.0813 17.429 47.8946C17.2603 47.738 17.0978 47.5755 16.9351 47.4068C16.61 47.0756 16.2968 46.7384 15.9957 46.389C15.8451 46.2144 15.6945 46.0338 15.55 45.8531C15.4055 45.6724 15.261 45.4917 15.1224 45.3111C14.6929 44.7501 14.2929 44.1671 13.924 43.5646C13.8095 43.3779 13.6951 43.1852 13.5807 42.9924C13.4663 42.7937 13.3518 42.589 13.2434 42.3842C13.1531 42.2095 13.0628 42.0409 12.9724 41.8663C12.4256 40.7667 11.9684 39.6248 11.6054 38.4516C11.5451 38.2468 11.4849 38.0421 11.4307 37.8313C11.3645 37.5904 11.3043 37.3495 11.244 37.1026C11.1959 36.8918 11.1477 36.675 11.0995 36.4582C11.0599 36.2534 11.0202 36.0414 10.9806 35.8381L10.9221 35.4934C10.8649 35.0931 10.8065 34.686 10.7683 34.2721C10.7502 34.0914 10.7321 33.9047 10.7201 33.718C10.702 33.5494 10.696 33.3748 10.69 33.2061C10.6779 33.0436 10.6719 32.8749 10.6659 32.7123C10.6599 32.4835 10.6538 32.2546 10.6538 32.0258C10.6538 31.6464 10.6659 31.2669 10.684 30.8936C10.69 30.7069 10.702 30.5202 10.7201 30.3335C10.7321 30.1468 10.7502 29.9601 10.7683 29.7794C10.7863 29.5747 10.8104 29.3699 10.8405 29.1652C10.8586 29.0025 10.8827 28.8399 10.9068 28.6773C10.9369 28.4967 10.967 28.316 10.9971 28.1353C11.0453 27.8703 11.0935 27.6054 11.1537 27.3464C11.1838 27.1958 11.2199 27.0453 11.2561 26.9008C11.3103 26.6779 11.3645 26.4551 11.4247 26.2383C11.4548 26.1359 11.4849 26.0275 11.515 25.9191C11.932 24.4745 12.495 23.0762 13.1953 21.7456C13.3666 21.4316 13.5463 21.1176 13.7245 20.8137C14.2524 19.9113 14.8504 19.0518 15.5131 18.2432C15.6297 18.1011 15.7465 17.9492 15.8632 17.813C16.8266 16.6819 17.8998 15.649 19.067 14.7296C19.1815 14.6393 19.3019 14.5489 19.4224 14.4586C19.6331 14.296 19.85 14.1394 20.0668 13.9888C20.2715 13.8443 20.4763 13.7058 20.6871 13.5733C20.7232 13.5492 20.7654 13.5191 20.8075 13.495C21.0665 13.3264 21.3314 13.1638 21.6025 13.0072C21.6326 12.9891 21.6627 12.9711 21.6928 12.953C21.9337 12.8145 22.1746 12.682 22.4215 12.5555C22.7527 12.3809 23.096 12.2122 23.4393 12.0557C23.6501 11.9593 23.8608 11.8629 24.0776 11.7726C24.168 11.7365 24.2523 11.7004 24.3426 11.6642C24.6197 11.5498 24.9027 11.4414 25.1858 11.339C25.2038 11.333 25.2159 11.327 25.2339 11.3209C25.517 11.2186 25.8061 11.1222 26.1012 11.0319C26.1161 11.0244 26.1326 11.0202 26.1493 11.0198C26.4625 10.9175 26.7817 10.8331 27.1009 10.7488C27.1147 10.744 27.1288 10.74 27.143 10.7368C27.4622 10.6525 27.7874 10.5802 28.1066 10.5139C28.4438 10.4417 28.7751 10.3814 29.1123 10.3272C29.1989 10.3136 29.2852 10.3003 29.3712 10.2875C29.8542 10.2124 30.348 10.3162 30.76 10.5793C33.4136 12.3043 35.6646 14.5804 37.3602 17.2529C37.4366 17.3718 37.4842 17.5068 37.4992 17.6474C37.5141 17.7879 37.496 17.93 37.4464 18.0623C37.3967 18.1946 37.3168 18.3135 37.2131 18.4094C37.1093 18.5054 36.9846 18.5758 36.8488 18.615C33.2733 19.6156 30.0431 21.5831 27.5135 24.301C24.9839 27.0189 23.253 30.3818 22.5112 34.0198C21.7693 37.6579 22.0453 41.43 23.3088 44.9213C24.5722 48.4126 26.7742 51.4878 29.6724 53.8086Z" fill="#15C0E8"/>
<path d="M34.3276 10.1895C34.8215 10.2557 35.3153 10.34 35.8031 10.4364C35.9777 10.4725 36.1524 10.5146 36.327 10.5508C36.5077 10.5929 36.6824 10.6351 36.857 10.6833C38.025 10.9807 39.1654 11.3777 40.2657 11.8697C40.3921 11.9239 40.5186 11.9841 40.6391 12.0383C40.7294 12.0805 40.8137 12.1166 40.892 12.1588C41.1871 12.2973 41.4761 12.4478 41.7592 12.5984C42.0844 12.773 42.4036 12.9537 42.7167 13.1464C42.9155 13.2669 43.1142 13.3934 43.307 13.5198C43.5057 13.6463 43.6984 13.7728 43.8851 13.9052C44.0778 14.0377 44.2645 14.1702 44.4512 14.3088C44.6379 14.4473 44.8246 14.5918 45.0053 14.7363C45.1859 14.8809 45.3606 15.0254 45.5412 15.1759C45.6918 15.3024 45.8363 15.4289 45.9869 15.5614C46.1856 15.736 46.3844 15.9167 46.5711 16.1034C46.7397 16.26 46.9023 16.4226 47.0649 16.5912C47.3901 16.9224 47.7033 17.2597 48.0044 17.609C48.1549 17.7836 48.3055 17.9643 48.45 18.145C48.5945 18.3256 48.7391 18.5063 48.8776 18.687C49.3071 19.248 49.7072 19.8309 50.0761 20.4335C50.1905 20.6202 50.3049 20.8129 50.4193 21.0056C50.5338 21.2043 50.6482 21.4091 50.7566 21.6138C50.8469 21.7885 50.9373 21.9571 51.0276 22.1318C51.5744 23.2314 52.0316 24.3733 52.3947 25.5464C52.4549 25.7512 52.5151 25.9559 52.5693 26.1667C52.6356 26.4076 52.6958 26.6485 52.756 26.8954C52.8042 27.1062 52.8524 27.323 52.9006 27.5398C52.9402 27.7446 52.9798 27.9566 53.0194 28.16L53.078 28.5046C53.1352 28.905 53.1936 29.3121 53.2318 29.7259C53.2499 29.9066 53.2679 30.0933 53.28 30.28C53.298 30.4486 53.304 30.6233 53.3101 30.7919C53.3221 30.9545 53.3281 31.1231 53.3341 31.2857C53.3402 31.5146 53.3462 31.7434 53.3462 31.9722C53.3462 32.3517 53.3341 32.7311 53.3161 33.1045C53.3101 33.2911 53.298 33.4778 53.28 33.6645C53.2679 33.8512 53.2499 34.0379 53.2318 34.2186C53.2137 34.4234 53.1896 34.6281 53.1595 34.8329C53.1414 34.9955 53.1173 35.1581 53.0933 35.3207C53.0632 35.5013 53.033 35.682 53.0029 35.8627C52.9547 36.1277 52.9066 36.3927 52.8463 36.6516C52.8162 36.8022 52.7801 36.9527 52.744 37.0973C52.6897 37.3201 52.6356 37.5429 52.5753 37.7597C52.5452 37.8621 52.5151 37.9705 52.485 38.0789C52.068 39.5235 51.505 40.9219 50.8048 42.2524C50.6335 42.5664 50.4537 42.8804 50.2756 43.1844C49.7476 44.0867 49.1496 44.9462 48.487 45.7548C48.3704 45.8969 48.2536 46.0488 48.1369 46.185C47.1734 47.3161 46.1002 48.349 44.933 49.2684C44.8186 49.3587 44.6981 49.4491 44.5777 49.5394C44.3669 49.702 44.1501 49.8586 43.9333 50.0092C43.7285 50.1537 43.5238 50.2922 43.313 50.4247C43.2768 50.4488 43.2347 50.4789 43.1925 50.503C42.9336 50.6716 42.6686 50.8342 42.3976 50.9908C42.3675 51.0089 42.3374 51.027 42.3072 51.045C42.0664 51.1836 41.8254 51.316 41.5785 51.4425C41.2473 51.6171 40.904 51.7858 40.5608 51.9424C40.35 52.0387 40.1392 52.1351 39.9224 52.2254C39.8321 52.2615 39.7477 52.2977 39.6574 52.3338C39.3804 52.4482 39.0973 52.5566 38.8143 52.659C38.7962 52.665 38.7842 52.671 38.7661 52.6771C38.4831 52.7794 38.194 52.8758 37.8989 52.9661C37.8839 52.9737 37.8675 52.9778 37.8507 52.9782C37.5375 53.0806 37.2183 53.1649 36.8992 53.2492C36.8854 53.254 36.8713 53.2581 36.857 53.2613C36.5378 53.3456 36.2126 53.4178 35.8935 53.4841C35.5562 53.5564 35.2249 53.6166 34.8877 53.6708C34.8011 53.6845 34.7148 53.6977 34.6288 53.7106C34.1458 53.7856 33.652 53.6818 33.2401 53.4187C30.5865 51.6937 28.3354 49.4176 26.6399 46.7451C26.5635 46.6263 26.5159 46.4912 26.5009 46.3506C26.4859 46.2101 26.504 46.0681 26.5537 45.9357C26.6033 45.8034 26.6832 45.6846 26.787 45.5886C26.8907 45.4926 27.0155 45.4223 27.1512 45.383C30.7267 44.3824 33.957 42.4149 36.4865 39.697C39.0161 36.9791 40.747 33.6162 41.4889 29.9782C42.2307 26.3401 41.9547 22.568 40.6913 19.0767C39.4278 15.5854 37.2258 12.5102 34.3276 10.1895Z" fill="#1C00B4"/>
</svg>
