<svg width="21" height="21" viewBox="0 0 21 21" fill="none" xmlns="http://www.w3.org/2000/svg">
<path d="M10.9369 20.8933C5.45322 20.8933 0.9375 16.3776 0.9375 10.8939C0.9375 5.41925 5.45322 0.894531 10.9269 0.894531C16.4116 0.894531 20.9363 5.41925 20.9363 10.8939C20.9363 16.3776 16.4206 20.8933 10.9369 20.8933ZM5.14624 4.99828C5.60621 5.31426 6.17218 5.58224 6.83314 5.79323C7.27411 4.6143 7.85008 3.64636 8.54003 2.9654C7.2642 3.36506 6.10041 4.06178 5.14624 4.99828ZM13.3437 2.9754C14.0247 3.65536 14.6097 4.6243 15.0406 5.79323C15.7026 5.58324 16.2686 5.32326 16.7285 5.00728C15.7886 4.07734 14.6287 3.37738 13.3437 2.9754ZM11.6378 3.36838V6.3402C12.3491 6.31153 13.0171 6.2442 13.6417 6.13821C13.1238 4.76829 12.4138 3.75136 11.6378 3.36838ZM8.23405 6.13821C8.85702 6.2442 9.52897 6.3112 10.2379 6.3402V3.36838C9.46098 3.75136 8.75202 4.76829 8.23405 6.13821ZM2.68239 10.194H6.00919C6.05719 9.09103 6.20118 8.05609 6.43116 7.11615C5.55822 6.83817 4.81126 6.47419 4.2453 6.04322C3.35292 7.25695 2.81216 8.69308 2.68239 10.194ZM15.8646 10.194H19.1914C19.06 8.6962 18.5193 7.26339 17.6285 6.05222C17.0635 6.47419 16.3156 6.83817 15.4426 7.11615C15.6726 8.05609 15.8166 9.09203 15.8646 10.194ZM7.4371 10.194H10.2369V7.74911C9.42939 7.71377 8.6254 7.62087 7.83108 7.47113C7.62009 8.31508 7.4851 9.23502 7.4371 10.194ZM11.6368 10.194H14.4367C14.3938 9.27574 14.2618 8.36385 14.0427 7.47113C13.2957 7.61512 12.4808 7.71111 11.6368 7.74911V10.194ZM2.68239 11.5939C2.81558 13.106 3.36292 14.5522 4.2643 15.7736C4.83026 15.3516 5.56822 14.9977 6.44016 14.7197C6.187 13.6958 6.04255 12.6481 6.00919 11.5939H2.68239ZM7.4371 11.5939C7.4851 12.5618 7.62009 13.5018 7.83108 14.3637C8.58803 14.2207 9.39298 14.1247 10.2369 14.0867V11.5939H7.4371ZM11.6368 14.0867C12.4808 14.1247 13.2857 14.2207 14.0427 14.3647C14.2537 13.5018 14.3887 12.5618 14.4357 11.5939H11.6358L11.6368 14.0867ZM15.4336 14.7197C16.3056 14.9967 17.0435 15.3516 17.6095 15.7736C18.5109 14.5522 19.0582 13.106 19.1914 11.5939H15.8646C15.8312 12.6481 15.6868 13.6958 15.4336 14.7197ZM8.25205 15.6966C8.76102 17.0395 9.46998 18.0465 10.2369 18.4385V15.4856C9.52697 15.5156 8.86601 15.5916 8.25205 15.6976M11.6368 15.4876V18.4405C12.4038 18.0465 13.1128 17.0405 13.6217 15.6986C12.9655 15.5843 12.3024 15.5138 11.6368 15.4876ZM15.0306 16.0336C14.5987 17.1935 14.0237 18.1435 13.3527 18.8134C14.6148 18.4224 15.7653 17.7358 16.7085 16.8106C16.2486 16.5036 15.6826 16.2446 15.0306 16.0336ZM5.17524 16.8106C6.10518 17.7305 7.25511 18.4205 8.52104 18.8134C7.85008 18.1435 7.27411 17.1935 6.84314 16.0336C6.19118 16.2446 5.62521 16.5036 5.17524 16.8106Z" fill="#1A1A1A"/>
</svg>
