<?xml version="1.0" encoding="UTF-8"?>
<svg version="1.1" xmlns="http://www.w3.org/2000/svg" width="640" height="198">
<path d="M0 0 C211.2 0 422.4 0 640 0 C640 65.34 640 130.68 640 198 C428.8 198 217.6 198 0 198 C0 132.66 0 67.32 0 0 Z " fill="#FEFEFE" transform="translate(0,0)"/>
<path d="M0 0 C14.61299442 1.72970138 30.68931109 8.27740611 40.4375 19.6875 C40.8809375 20.26371094 41.324375 20.83992188 41.78125 21.43359375 C43.09644496 23.21198751 43.09644496 23.21198751 45.4375 25.25 C58.94910671 39.75026086 62.68749565 58.48919514 62.25 77.6640625 C62.00141375 83.38403208 60.87741778 88.59485366 59 94 C58.6596875 94.98226562 58.319375 95.96453125 57.96875 96.9765625 C50.89269091 115.47950081 37.52577252 129.39276252 19.70703125 137.8671875 C3.95588059 144.45857811 3.95588059 144.45857811 -4 143 C-7.31647697 140.99103426 -10.14451431 138.61293478 -13 136 C-14.2684375 134.8553125 -14.2684375 134.8553125 -15.5625 133.6875 C-17.85724088 131.15740109 -20.10804483 128.60911914 -22.3125 126 C-23.35857422 124.7625 -23.35857422 124.7625 -24.42578125 123.5 C-26.18665221 120.70357961 -26.34125115 119.23899395 -26 116 C-25.03320312 115.64808594 -24.06640625 115.29617187 -23.0703125 114.93359375 C-14.89341852 111.86962755 -7.84909166 108.53831722 -1 103 C-0.23171875 102.40574219 0.5365625 101.81148438 1.328125 101.19921875 C7.62198742 96.02926033 11.84062608 89.95749819 16 83 C16.4228125 82.29875 16.845625 81.5975 17.28125 80.875 C24.39659604 67.9380072 25.34020549 50.28068473 22.2734375 35.9765625 C21.36375623 32.86293798 20.30632794 29.96698667 19 27 C18.62617188 26.11441406 18.25234375 25.22882812 17.8671875 24.31640625 C13.91474283 15.71787597 8.1087661 8.79118012 1.28515625 2.3125 C0 1 0 1 0 0 Z " fill="#1B16B0" transform="translate(124,23)"/>
<path d="M0 0 C2.04642485 1.51091181 3.93654922 3.10630937 5.83984375 4.79296875 C7.06380859 5.73076172 7.06380859 5.73076172 8.3125 6.6875 C10.91309633 8.8539937 12.92074454 11.08601442 15.02734375 13.73046875 C16.03861328 14.98150391 16.03861328 14.98150391 17.0703125 16.2578125 C18.78636117 18.7163458 19.85589041 20.9723025 20.83984375 23.79296875 C18.30331002 26.10893433 15.94709867 27.14437348 12.71484375 28.10546875 C-1.81965972 32.77642663 -14.53120744 44.7476433 -22.16015625 57.79296875 C-30.51965131 75.089213 -31.93979163 94.71080445 -25.69921875 112.8515625 C-22.00275978 122.70008701 -16.29544176 130.21686656 -9.1015625 137.7109375 C-7.16015625 139.79296875 -7.16015625 139.79296875 -7.16015625 140.79296875 C-18.49979887 140.12593095 -28.88594785 135.1273137 -38.16015625 128.79296875 C-38.9696875 128.25414062 -39.77921875 127.7153125 -40.61328125 127.16015625 C-55.22080804 116.5490283 -65.19201004 98.50262266 -68.16015625 80.79296875 C-69.77072556 59.41793717 -65.97559471 40.83403408 -52.02734375 23.91015625 C-45.44458459 16.44602347 -38.82856402 10.74080806 -30.16015625 5.79296875 C-29.47050781 5.39207031 -28.78085938 4.99117187 -28.0703125 4.578125 C-20.49029341 0.47034369 -8.18767683 -4.575031 0 0 Z " fill="#16C0E8" transform="translate(113.16015625,25.20703125)"/>
<path d="M0 0 C0.65739166 0.00565979 1.31478333 0.01131958 1.99209595 0.01715088 C4.07102441 0.03936225 6.14816413 0.0895208 8.2265625 0.140625 C9.64450618 0.16071011 11.06247715 0.17895735 12.48046875 0.1953125 C15.93807127 0.23917433 19.39464201 0.30809063 22.8515625 0.390625 C22.8515625 3.030625 22.8515625 5.670625 22.8515625 8.390625 C20.5415625 8.720625 18.2315625 9.050625 15.8515625 9.390625 C16.3465625 10.380625 16.3465625 10.380625 16.8515625 11.390625 C17.65763894 17.87887963 16.81497888 22.17560345 12.8515625 27.390625 C7.38814561 31.73334099 0.47685052 30.65602971 -6.1484375 30.390625 C-6.1484375 32.370625 -6.1484375 34.350625 -6.1484375 36.390625 C-3.88025755 37.52471498 -2.52800907 37.54233408 -0.0078125 37.6015625 C1.22775391 37.64410156 1.22775391 37.64410156 2.48828125 37.6875 C4.21463995 37.73911013 5.94123076 37.78351747 7.66796875 37.8203125 C13.75789767 38.04761933 18.36546659 38.90452909 22.8515625 43.390625 C23.63784134 47.52614929 23.6771697 51.60124776 21.89453125 55.46484375 C17.84816495 60.84056382 12.26653161 62.95558531 5.8515625 64.390625 C-1.1174826 65.2341958 -7.84544949 64.64673291 -14.1484375 61.390625 C-17.36380632 58.56737433 -18.04321632 57.12717323 -18.6484375 52.890625 C-18.07333419 48.8649018 -17.04139191 47.19849252 -14.1484375 44.390625 C-13.4884375 44.390625 -12.8284375 44.390625 -12.1484375 44.390625 C-13.1384375 43.09125 -13.1384375 43.09125 -14.1484375 41.765625 C-16.30975576 38.11840043 -16.77856976 36.53149411 -16.1484375 32.390625 C-15.16112008 31.04787331 -14.16249007 29.71330227 -13.1484375 28.390625 C-13.32228721 25.69595456 -14.16685155 24.36410877 -15.7109375 22.140625 C-17.61056028 18.50656402 -17.82064305 15.36343531 -17.1484375 11.390625 C-14.27703985 3.37666773 -8.47815741 -0.14492577 0 0 Z " fill="#2206B6" transform="translate(332.1484375,82.609375)"/>
<path d="M0 0 C11.88 0 23.76 0 36 0 C36 2.97 36 5.94 36 9 C27.75 9 19.5 9 11 9 C11 13.95 11 18.9 11 24 C17.93 24 24.86 24 32 24 C32 26.64 32 29.28 32 32 C25.07 32 18.14 32 11 32 C11 37.94 11 43.88 11 50 C19.58 50 28.16 50 37 50 C37 52.97 37 55.94 37 59 C31.89136104 59.0246501 26.78275641 59.04283607 21.67407227 59.05493164 C19.93480832 59.05997204 18.19554864 59.0668043 16.45629883 59.07543945 C13.96174063 59.08751792 11.46723827 59.09323108 8.97265625 59.09765625 C8.19036148 59.10281754 7.40806671 59.10797882 6.60206604 59.11329651 C4.73432886 59.11349226 2.86670796 59.06199694 1 59 C0 58 0 58 -0.12025452 55.67784119 C-0.11803391 54.64969803 -0.11581329 53.62155487 -0.11352539 52.56225586 C-0.11344986 51.40112778 -0.11337433 50.23999969 -0.11329651 49.04368591 C-0.10813522 47.780168 -0.10297394 46.51665009 -0.09765625 45.21484375 C-0.0962413 43.92888809 -0.09482635 42.64293243 -0.09336853 41.31800842 C-0.08954418 37.89356557 -0.07971462 34.46916491 -0.06866455 31.04473877 C-0.05844864 27.55261822 -0.05381582 24.06049067 -0.04882812 20.56835938 C-0.03862247 13.71220228 -0.01905077 6.85616115 0 0 Z " fill="#260CB7" transform="translate(445,69)"/>
<path d="M0 0 C3.66828291 2.82531891 5.51229918 6.8096559 6.859375 11.12890625 C7.10181692 13.85103367 7.21349853 16.32299823 7.15234375 19.03125 C7.14809891 19.75381485 7.14385406 20.4763797 7.13948059 21.22084045 C7.12283918 23.50309318 7.08521748 25.78442558 7.046875 28.06640625 C7.03180923 29.6243361 7.01812416 31.18227995 7.00585938 32.74023438 C6.97298382 36.53680682 6.9213059 40.33270112 6.859375 44.12890625 C3.889375 44.12890625 0.919375 44.12890625 -2.140625 44.12890625 C-2.140625 42.47890625 -2.140625 40.82890625 -2.140625 39.12890625 C-2.74648438 39.48984375 -3.35234375 39.85078125 -3.9765625 40.22265625 C-9.98822513 43.55219247 -15.23398771 45.6505062 -22.140625 44.12890625 C-25.25006698 42.41335205 -27.5274836 40.35518906 -29.140625 37.12890625 C-29.26210805 35.50724873 -29.31606152 33.88006298 -29.328125 32.25390625 C-29.34230469 31.39023438 -29.35648437 30.5265625 -29.37109375 29.63671875 C-29.0589878 26.24058284 -28.17385306 24.13367072 -25.72265625 21.75 C-19.15605321 17.35776883 -11.79051011 16.35408316 -4.140625 15.12890625 C-5.130625 12.81890625 -6.120625 10.50890625 -7.140625 8.12890625 C-13.65853892 7.77481435 -18.31583949 8.08988773 -24.140625 11.12890625 C-26.120625 7.66390625 -26.120625 7.66390625 -28.140625 4.12890625 C-20.03749321 -0.7965268 -9.30127829 -3.78500923 0 0 Z " fill="#2409B6" transform="translate(520.140625,83.87109375)"/>
<path d="M0 0 C4.29 0 8.58 0 13 0 C14.76577244 4.9560043 16.52526599 9.91418187 18.27954102 14.87426758 C18.87427 16.55322956 19.47056591 18.23163751 20.06860352 19.90942383 C29.44492906 46.22464532 29.44492906 46.22464532 32 59 C28.37 59 24.74 59 21 59 C16.80880095 46.25176955 13.11128376 33.39560726 9.62890625 20.4387207 C9.30148438 19.22917725 8.9740625 18.01963379 8.63671875 16.7734375 C8.34498779 15.68466309 8.05325684 14.59588867 7.75268555 13.47412109 C7.2361707 11.07927446 7.2361707 11.07927446 6 10 C5.70609375 11.37091797 5.70609375 11.37091797 5.40625 12.76953125 C3.00309584 23.60385537 -0.05066735 34.20067009 -3.26953125 44.81958008 C-3.60726562 45.9361499 -3.945 47.05271973 -4.29296875 48.203125 C-4.5974292 49.19989258 -4.90188965 50.19666016 -5.21557617 51.22363281 C-5.93867135 53.78293513 -6.47843081 56.39215403 -7 59 C-10.96 59 -14.92 59 -19 59 C-16.6052648 49.77464427 -13.66953127 40.77471381 -10.625 31.75 C-10.15075536 30.33733567 -9.67679578 28.9245756 -9.203125 27.51171875 C-8.26865184 24.72543893 -7.33265683 21.93967775 -6.39550781 19.15429688 C-4.25023803 12.7740175 -2.1254888 6.38689114 0 0 Z " fill="#2308B6" transform="translate(228,69)"/>
<path d="M0 0 C4.01684726 2.93915653 6.95784056 6.06102168 8.5625 10.875 C8.5625 15.165 8.5625 19.455 8.5625 23.875 C-0.6775 23.875 -9.9175 23.875 -19.4375 23.875 C-16.6029633 32.8220244 -16.6029633 32.8220244 -11.4375 34.875 C-8.78723831 35.15327838 -8.78723831 35.15327838 -6 35.0625 C-5.07316406 35.05605469 -4.14632813 35.04960938 -3.19140625 35.04296875 C-0.52033944 34.88005262 1.95591958 34.4663295 4.5625 33.875 C5.5525 35.855 6.5425 37.835 7.5625 39.875 C1.75897395 44.51782084 -4.42929801 44.71851376 -11.60546875 44.39453125 C-16.97415928 43.66666597 -19.87180221 41.84631949 -23.4375 37.875 C-24.22125 37.05 -25.005 36.225 -25.8125 35.375 C-29.94540914 29.01667825 -30.35292139 22.28419184 -29.4375 14.875 C-24.89737975 1.55866516 -13.37786714 -4.37821106 0 0 Z " fill="#2207B6" transform="translate(388.4375,84.125)"/>
<path d="M0 0 C2.97 0 5.94 0 9 0 C9 1.98 9 3.96 9 6 C9.54269531 5.65066406 10.08539063 5.30132812 10.64453125 4.94140625 C11.71767578 4.25884766 11.71767578 4.25884766 12.8125 3.5625 C13.52019531 3.11003906 14.22789062 2.65757813 14.95703125 2.19140625 C19.47914081 -0.44577045 23.90656809 -0.50216934 29 0 C32.709949 1.6130213 34.94831039 3.51212766 37 7 C38.10472802 11.18080381 38.11482681 15.1784705 38.09765625 19.48828125 C38.0962413 20.19147995 38.09482635 20.89467865 38.09336853 21.6191864 C38.08780109 23.85033544 38.07525475 26.08138164 38.0625 28.3125 C38.05748079 29.83137875 38.05291862 31.35025909 38.04882812 32.86914062 C38.03784236 36.57946012 38.02060034 40.28972001 38 44 C34.7 44 31.4 44 28 44 C27.98018066 43.18321777 27.96036133 42.36643555 27.93994141 41.52490234 C27.84441857 37.8079556 27.73484876 34.09154981 27.625 30.375 C27.5940625 29.08980469 27.563125 27.80460937 27.53125 26.48046875 C27.49257813 25.23652344 27.45390625 23.99257812 27.4140625 22.7109375 C27.36693115 20.99849854 27.36693115 20.99849854 27.31884766 19.25146484 C26.99089154 15.907116 26.1834072 13.134991 25 10 C23.58430936 9.91832554 22.16723195 9.86050302 20.75 9.8125 C19.96109375 9.77769531 19.1721875 9.74289063 18.359375 9.70703125 C15.2818439 10.08917501 14.17189738 10.77425393 12 13 C11.57285919 15.56494618 11.3952377 17.72322205 11.390625 20.29296875 C11.37408875 20.99899734 11.35755249 21.70502594 11.34051514 22.43244934 C11.29198712 24.68422092 11.27065562 26.93531709 11.25 29.1875 C11.22184401 30.71552886 11.19191709 32.24352619 11.16015625 33.77148438 C11.08622806 37.51426728 11.03668377 41.25667424 11 45 C9.35425434 45.02688151 7.70838587 45.04634123 6.0625 45.0625 C5.14597656 45.07410156 4.22945313 45.08570313 3.28515625 45.09765625 C1 45 1 45 0 44 C-0.0927833 42.61839885 -0.11747043 41.23211962 -0.11352539 39.84741211 C-0.11341209 38.52615578 -0.11341209 38.52615578 -0.11329651 37.1782074 C-0.10555458 35.74227989 -0.10555458 35.74227989 -0.09765625 34.27734375 C-0.0962413 33.30213272 -0.09482635 32.32692169 -0.09336853 31.32215881 C-0.08775133 28.19390857 -0.07519593 25.06572877 -0.0625 21.9375 C-0.05748722 19.82226666 -0.05292393 17.70703219 -0.04882812 15.59179688 C-0.03777631 10.39450393 -0.02050016 5.19726392 0 0 Z " fill="#250BB7" transform="translate(266,83)"/>
<path d="M0 0 C3.03300531 1.04259558 5.26231829 2.28223893 8 4 C6.75023244 7.65316671 6.32901247 8.78065836 3 11 C2.13375 10.505 1.2675 10.01 0.375 9.5 C-3.14031497 7.93763779 -5.20939017 7.56924888 -9 8 C-11.25650715 9.80894733 -11.25650715 9.80894733 -11.1171875 12.37109375 C-9.37308575 16.47522131 -6.07274322 17.34952272 -2.125 19.0625 C7.10415344 23.15803821 7.10415344 23.15803821 9 27 C9.78570602 30.76911147 9.77927898 34.22894369 9 38 C6.33910908 41.66138591 3.25044401 43.58318533 -1 45 C-3.26763574 45.14648082 -5.54032366 45.2209626 -7.8125 45.25 C-9.61654297 45.28867188 -9.61654297 45.28867188 -11.45703125 45.328125 C-16.52933448 44.85836373 -19.82563009 42.78291327 -24 40 C-22.79618552 37.50638429 -21.54571278 35.31856917 -20 33 C-19.1646875 33.433125 -19.1646875 33.433125 -18.3125 33.875 C-17.549375 34.24625 -16.78625 34.6175 -16 35 C-15.236875 35.37125 -14.47375 35.7425 -13.6875 36.125 C-10.30794917 37.22531887 -7.5340239 37.26177955 -4 37 C-3.01 36.34 -2.02 35.68 -1 35 C-0.7497843 31.91634129 -0.7497843 31.91634129 -1 29 C-1.639375 28.7525 -2.27875 28.505 -2.9375 28.25 C-3.948125 27.8375 -4.95875 27.425 -6 27 C-6.70125 26.72027344 -7.4025 26.44054687 -8.125 26.15234375 C-13.46434452 23.92461048 -19.27903905 21.44192191 -22 16 C-22.57692308 8.96153846 -22.57692308 8.96153846 -20.3125 5.1875 C-14.08038913 -0.70774001 -8.29750133 -0.94743104 0 0 Z " fill="#2005B5" transform="translate(559,83)"/>
<path d="M0 0 C2.97 0 5.94 0 9 0 C9 3.96 9 7.92 9 12 C12.63 12 16.26 12 20 12 C20 14.97 20 17.94 20 21 C16.37 21 12.74 21 9 21 C9.11362874 24.93813307 9.24038724 28.87507674 9.375 32.8125 C9.4059375 33.93205078 9.436875 35.05160156 9.46875 36.20507812 C9.50742187 37.27822266 9.54609375 38.35136719 9.5859375 39.45703125 C9.63306885 40.9416687 9.63306885 40.9416687 9.68115234 42.45629883 C9.83773433 45.24075094 9.83773433 45.24075094 12 48 C13.96361864 48.57748803 13.96361864 48.57748803 16.125 48.6875 C17.40375 48.790625 18.6825 48.89375 20 49 C20.33 51.31 20.66 53.62 21 56 C16.56931344 58.21534328 10.81047056 57.53714932 6 57 C2.45864928 54.50022302 0.60698915 51.97164618 -1 48 C-1.22705078 45.06738281 -1.22705078 45.06738281 -1.1953125 41.703125 C-1.18564453 39.89521484 -1.18564453 39.89521484 -1.17578125 38.05078125 C-1.15902344 36.79652344 -1.14226563 35.54226562 -1.125 34.25 C-1.11597656 32.98027344 -1.10695313 31.71054688 -1.09765625 30.40234375 C-1.07409005 27.26803907 -1.04118832 24.13411459 -1 21 C-3.31 21 -5.62 21 -8 21 C-8 18.36 -8 15.72 -8 13 C-4.535 12.505 -4.535 12.505 -1 12 C-0.67 8.04 -0.34 4.08 0 0 Z " fill="#2207B6" transform="translate(579,71)"/>
<path d="M0 0 C3.63 0 7.26 0 11 0 C11.33 18.15 11.66 36.3 12 55 C12.99 55.33 13.98 55.66 15 56 C15.33 58.64 15.66 61.28 16 64 C14.22992286 64.08114106 12.45877902 64.13925505 10.6875 64.1875 C9.70136719 64.22230469 8.71523438 64.25710937 7.69921875 64.29296875 C5 64 5 64 3.26953125 62.80078125 C0.44725415 58.79748973 -0.2488773 55.12632172 -0.22705078 50.29174805 C-0.22689972 49.17096359 -0.22674866 48.05017914 -0.22659302 46.89543152 C-0.21627045 45.6963063 -0.20594788 44.49718109 -0.1953125 43.26171875 C-0.1924826 42.02581497 -0.18965271 40.78991119 -0.18673706 39.51655579 C-0.17745218 36.24335003 -0.15950633 32.97034356 -0.1373291 29.69720459 C-0.11680817 26.35219152 -0.10789268 23.00716974 -0.09765625 19.66210938 C-0.07561791 13.1079852 -0.04109903 6.55403125 0 0 Z " fill="#280EB8" transform="translate(407,64)"/>
<path d="M0 0 C0.77915771 0.04600342 1.55831543 0.09200684 2.36108398 0.1394043 C3.63048828 0.20998047 3.63048828 0.20998047 4.92553711 0.28198242 C5.81047852 0.34192383 6.69541992 0.40186523 7.60717773 0.46362305 C8.49598633 0.51196289 9.38479492 0.56030273 10.30053711 0.61010742 C16.90142743 1.00787274 16.90142743 1.00787274 18.04467773 2.15112305 C18.5079982 7.47930838 18.5079982 7.47930838 16.79467773 9.96362305 C12.08110932 13.1621159 5.48541931 12.86637563 0.04467773 12.15112305 C-3.20532227 9.96362305 -3.20532227 9.96362305 -4.95532227 7.15112305 C-4.87119084 3.53347176 -4.12668278 0.31894327 0 0 Z " fill="#F6F5FC" transform="translate(326.955322265625,127.848876953125)"/>
<path d="M0 0 C2.4375 1.5 2.4375 1.5 4 4 C4.59107389 8.65470688 4.59775838 10.8523039 2.4375 15 C0 17 0 17 -3.5 17.625 C-7 17 -7 17 -9.4375 15 C-11.59775838 10.8523039 -11.59107389 8.65470688 -11 4 C-8.16250305 -0.53999512 -5.10870514 -0.72981502 0 0 Z " fill="#F5F4FB" transform="translate(336,90)"/>
<path d="M0 0 C0.28331067 3.70822184 0.42034243 7.29880299 0 11 C-2.29223601 13.50713314 -3.72723741 13.85885233 -7.04296875 14.2265625 C-9.1875 14.3125 -9.1875 14.3125 -13 14 C-15 12 -15 12 -15.125 8.375 C-15.08375 7.26125 -15.0425 6.1475 -15 5 C-9.86445624 1.87839497 -6.11560981 0 0 0 Z " fill="#FAFAFD" transform="translate(516,106)"/>
<path d="M0 0 C2.08984375 0.41796875 2.08984375 0.41796875 4.58984375 2.04296875 C6.08984375 4.41796875 6.08984375 4.41796875 7.08984375 10.41796875 C0.81984375 10.41796875 -5.45015625 10.41796875 -11.91015625 10.41796875 C-11.91015625 5.41796875 -11.91015625 5.41796875 -9.97265625 2.60546875 C-6.35949443 0.02463888 -4.33966131 -0.26716717 0 0 Z " fill="#F8F7FC" transform="translate(381.91015625,90.58203125)"/>
</svg>
