<svg width="8" height="9" viewBox="0 0 8 9" fill="none" xmlns="http://www.w3.org/2000/svg">
<path fill-rule="evenodd" clip-rule="evenodd" d="M3.75195 0.1875C2.60514 0.1875 1.67548 1.11717 1.67548 2.26397C1.67548 3.41077 2.60514 4.34044 3.75195 4.34044C4.89875 4.34044 5.82841 3.41077 5.82841 2.26397C5.82841 1.11717 4.89875 0.1875 3.75195 0.1875ZM2.56539 2.26397C2.56539 1.60865 3.09663 1.07742 3.75195 1.07742C4.40726 1.07742 4.9385 1.60865 4.9385 2.26397C4.9385 2.91928 4.40726 3.45052 3.75195 3.45052C3.09663 3.45052 2.56539 2.91928 2.56539 2.26397Z" fill="#3B82F6"/>
<path fill-rule="evenodd" clip-rule="evenodd" d="M7.00544 6.84809C6.34902 5.66652 5.1036 4.93371 3.75194 4.93371C2.40028 4.93371 1.15486 5.66652 0.498434 6.84809L0.239375 7.3144C-0.0544848 7.84334 0.327996 8.49338 0.933091 8.49338H6.57079C7.17588 8.49338 7.55836 7.84334 7.2645 7.31439L7.00544 6.84809ZM1.27636 7.28027C1.77583 6.38122 2.72346 5.82363 3.75194 5.82363C4.78041 5.82363 5.72805 6.38122 6.22752 7.28027L6.40707 7.60346H1.09681L1.27636 7.28027Z" fill="#3B82F6"/>
</svg>
