<svg width="38" height="38" viewBox="0 0 38 38" fill="none" xmlns="http://www.w3.org/2000/svg">
<path d="M15.6005 15.0577L12.9705 15.5687C12.6225 15.6367 12.3025 15.7977 12.0445 16.0337C11.8035 16.2547 11.6225 16.5377 11.5205 16.8527C11.4175 17.1667 11.3985 17.5027 11.4635 17.8237C11.5325 18.1657 11.6975 18.4837 11.9395 18.7437L13.7665 20.7027C13.8225 20.7627 13.8485 20.8437 13.8385 20.9247L13.5115 23.5837C13.4685 23.9357 13.5225 24.2907 13.6675 24.6077C13.8035 24.9057 14.0175 25.1657 14.2845 25.3607C14.5515 25.5547 14.8645 25.6767 15.1905 25.7147C15.2615 25.7227 15.3325 25.7267 15.4035 25.7267C15.6805 25.7267 15.9565 25.6657 16.2125 25.5457L18.6405 24.4137C18.7145 24.3787 18.7995 24.3787 18.8745 24.4137L21.3015 25.5457C21.6235 25.6957 21.9765 25.7537 22.3245 25.7147C22.6495 25.6767 22.9625 25.5547 23.2295 25.3607C23.4975 25.1657 23.7105 24.9057 23.8465 24.6077C23.9915 24.2907 24.0455 23.9357 24.0025 23.5837L23.6755 20.9247C23.6655 20.8437 23.6915 20.7627 23.7475 20.7027L25.5745 18.7437C25.8175 18.4837 25.9815 18.1657 26.0515 17.8237C26.1165 17.5027 26.0965 17.1667 25.9945 16.8527C25.8925 16.5377 25.7105 16.2547 25.4695 16.0337C25.2125 15.7977 24.8915 15.6367 24.5435 15.5687L21.9135 15.0577C21.8335 15.0427 21.7645 14.9927 21.7245 14.9207L20.4265 12.5777C20.2545 12.2667 20.0025 12.0117 19.6985 11.8407C19.4135 11.6797 19.0875 11.5947 18.7575 11.5947C18.4265 11.5947 18.1015 11.6797 17.8165 11.8407C17.5115 12.0127 17.2605 12.2667 17.0885 12.5777L15.7895 14.9207C15.7505 14.9927 15.6815 15.0427 15.6005 15.0577ZM17.2165 15.7117L18.5155 13.3687C18.5835 13.2437 18.6965 13.2257 18.7575 13.2257C18.8185 13.2257 18.9305 13.2437 18.9995 13.3687L20.2975 15.7107C20.5715 16.2057 21.0475 16.5517 21.6025 16.6597L24.2325 17.1707C24.3715 17.1977 24.4245 17.2987 24.4425 17.3567C24.4615 17.4147 24.4785 17.5267 24.3825 17.6307L22.5545 19.5897C22.1685 20.0037 21.9875 20.5627 22.0565 21.1237L22.3835 23.7827C22.4005 23.9237 22.3205 24.0047 22.2715 24.0407C22.2215 24.0757 22.1205 24.1277 21.9915 24.0677L19.5635 22.9347C19.0515 22.6957 18.4635 22.6957 17.9505 22.9347L15.5225 24.0677C15.3945 24.1277 15.2925 24.0767 15.2435 24.0407C15.1945 24.0047 15.1145 23.9237 15.1315 23.7827L15.4585 21.1237C15.5275 20.5627 15.3455 20.0037 14.9595 19.5897L13.1325 17.6307C13.0355 17.5267 13.0525 17.4147 13.0715 17.3567C13.0905 17.2987 13.1425 17.1977 13.2815 17.1707L15.9115 16.6597C16.4675 16.5517 16.9425 16.2057 17.2165 15.7117Z" fill="#4085FA"/>
<path d="M4.26017 16.4683C4.32117 16.4823 4.38217 16.4893 4.44217 16.4893C4.81417 16.4893 5.15017 16.2323 5.23617 15.8533C6.41017 10.6833 10.5082 6.58526 15.6782 5.41226C16.1172 5.31226 16.3932 4.87526 16.2932 4.43626C16.1932 3.99726 15.7562 3.72126 15.3172 3.82126C12.4732 4.46626 9.87417 5.90326 7.80117 7.97626C5.72817 10.0503 4.29117 12.6493 3.64517 15.4923C3.54617 15.9323 3.82117 16.3683 4.26017 16.4683Z" fill="#4085FA"/>
<path d="M15.6782 32.46C10.5082 31.287 6.40917 27.188 5.23617 22.018C5.13717 21.579 4.70017 21.304 4.26017 21.403C3.82117 21.503 3.54617 21.94 3.64517 22.379C4.29117 25.223 5.72817 27.822 7.80117 29.895C9.87417 31.969 12.4732 33.406 15.3172 34.051C15.3782 34.065 15.4382 34.072 15.4982 34.072C15.8712 34.072 16.2072 33.815 16.2932 33.436C16.3932 32.997 16.1172 32.56 15.6782 32.46Z" fill="#4085FA"/>
<path d="M33.2566 21.403C32.8176 21.304 32.3796 21.579 32.2806 22.018C31.1076 27.188 27.0086 31.287 21.8386 32.46C21.3996 32.559 21.1236 32.997 21.2236 33.436C21.3096 33.814 21.6456 34.071 22.0186 34.071C22.0786 34.071 22.1386 34.065 22.1996 34.051C25.0436 33.406 27.6426 31.969 29.7156 29.895C31.7896 27.822 33.2266 25.223 33.8716 22.379C33.9716 21.94 33.6956 21.503 33.2566 21.403Z" fill="#4085FA"/>
<path d="M21.8386 5.41195C27.0086 6.58495 31.1066 10.684 32.2796 15.854C32.3656 16.232 32.7026 16.489 33.0746 16.489C33.1346 16.489 33.1956 16.482 33.2556 16.468C33.6956 16.369 33.9706 15.932 33.8706 15.493C33.2256 12.649 31.7886 10.05 29.7156 7.97695C27.6426 5.90395 25.0436 4.46695 22.1996 3.82095C21.7606 3.72195 21.3236 3.99695 21.2236 4.43595C21.1236 4.87595 21.3996 5.31295 21.8386 5.41195Z" fill="#4085FA"/>
<path d="M18.7574 8.33183C19.2074 8.33183 19.5724 7.96583 19.5724 7.51583V0.989828C19.5724 0.538828 19.2074 0.173828 18.7574 0.173828C18.3064 0.173828 17.9414 0.538828 17.9414 0.989828V7.51583C17.9414 7.96583 18.3064 8.33183 18.7574 8.33183Z" fill="#4085FA"/>
<path d="M18.7574 29.54C18.3064 29.54 17.9414 29.906 17.9414 30.356V36.882C17.9414 37.333 18.3064 37.698 18.7574 37.698C19.2074 37.698 19.5724 37.333 19.5724 36.882V30.356C19.5724 29.906 19.2074 29.54 18.7574 29.54Z" fill="#4085FA"/>
<path d="M36.7053 18.1211H30.1793C29.7283 18.1211 29.3633 18.4861 29.3633 18.9361C29.3633 19.3871 29.7283 19.7521 30.1793 19.7521H36.7053C37.1553 19.7521 37.5203 19.3871 37.5203 18.9361C37.5203 18.4861 37.1553 18.1211 36.7053 18.1211Z" fill="#4085FA"/>
<path d="M8.15409 18.9361C8.15409 18.4851 7.78809 18.1201 7.33809 18.1201H0.812094C0.361094 18.1201 -0.00390625 18.4851 -0.00390625 18.9361C-0.00390625 19.3861 0.361094 19.7521 0.812094 19.7521H7.33809C7.78809 19.7521 8.15409 19.3861 8.15409 18.9361Z" fill="#4085FA"/>
</svg>
