<svg width="27" height="34" viewBox="0 0 27 34" fill="none" xmlns="http://www.w3.org/2000/svg">
<path fill-rule="evenodd" clip-rule="evenodd" d="M13.5013 5.46372C13.2843 5.22737 12.944 5.22742 12.7271 5.46384L6.39987 12.361C6.21369 12.564 6.17704 12.8275 6.27246 13.0784C6.36708 13.3273 6.55039 13.4643 6.78696 13.4643H9.4889L12.2522 27.5638C12.3133 27.8755 12.5549 28.0646 12.7996 28.0646H13.4281C13.6726 28.0646 13.9143 27.8755 13.9754 27.5638L16.7387 13.4643H19.4451C19.6817 13.4643 19.865 13.3273 19.9596 13.0784C20.055 12.8273 20.0183 12.5638 19.832 12.361L13.5013 5.46372ZM10.7423 3.38378C12.0488 1.9596 14.1787 1.95927 15.4855 3.38305L21.8163 10.2803C23.8688 12.5165 22.4707 16.4353 19.4451 16.4353H18.9964L16.696 28.1729C16.3726 29.8229 15.024 31.0357 13.4281 31.0357H12.7996C11.2035 31.0357 9.8549 29.8229 9.53153 28.1729L7.23111 16.4353H6.78696C3.76179 16.4353 2.36336 12.5174 4.41504 10.281L10.7423 3.38378Z" fill="#EFF6FF"/>
<path fill-rule="evenodd" clip-rule="evenodd" d="M3.42827 19.4123C4.16218 19.1718 4.93947 19.6129 5.16442 20.3973L7.60278 28.9006C7.82772 29.685 7.41512 30.5158 6.68121 30.7562C5.9473 30.9967 5.17001 30.5556 4.94506 29.7713L2.5067 21.2679C2.28176 20.4835 2.69436 19.6527 3.42827 19.4123Z" fill="#EFF6FF"/>
<path fill-rule="evenodd" clip-rule="evenodd" d="M22.6992 19.3898C23.4448 19.5851 23.901 20.3895 23.7182 21.1863L21.7674 29.6896C21.5846 30.4865 20.8321 30.974 20.0866 30.7786C19.3411 30.5833 18.8848 29.7789 19.0677 28.9821L21.0184 20.4788C21.2012 19.6819 21.9537 19.1944 22.6992 19.3898Z" fill="#EFF6FF"/>
</svg>
