<svg width="30" height="30" viewBox="0 0 30 30" fill="none" xmlns="http://www.w3.org/2000/svg">
<path d="M14.6419 4.80273C12.8179 4.80273 11.3392 6.28141 11.3392 8.10545C11.3392 8.71347 11.8321 9.20636 12.4401 9.20636C13.0481 9.20636 13.541 8.71347 13.541 8.10545C13.541 7.49744 14.0339 7.00455 14.6419 7.00455H20.5134C21.1215 7.00455 21.6143 7.49744 21.6143 8.10545V22.0503C21.6143 22.6583 21.1215 23.1512 20.5134 23.1512H14.6419C14.0339 23.1512 13.541 22.6583 13.541 22.0503C13.541 21.4422 13.0481 20.9494 12.4401 20.9494C11.8321 20.9494 11.3392 21.4422 11.3392 22.0503C11.3392 23.8743 12.8179 25.353 14.6419 25.353H20.5134C22.3375 25.353 23.8162 23.8743 23.8162 22.0503V8.10545C23.8162 6.28141 22.3375 4.80273 20.5134 4.80273H14.6419Z" fill="#9CA3AF"/>
<path d="M18.3116 16.1788C18.9196 16.1788 19.4125 15.6859 19.4125 15.0779C19.4125 14.4698 18.9196 13.9769 18.3116 13.9769H9.96039L11.3837 12.5536C11.8137 12.1237 11.8137 11.4266 11.3837 10.9967C10.9538 10.5667 10.2568 10.5667 9.82683 10.9967L6.52411 14.2994C6.31765 14.5059 6.20166 14.7859 6.20166 15.0779C6.20166 15.3698 6.31765 15.6499 6.52411 15.8563L9.82683 19.159C10.2568 19.589 10.9538 19.589 11.3837 19.159C11.8137 18.7291 11.8137 18.032 11.3837 17.6021L9.96039 16.1788H18.3116Z" fill="#9CA3AF"/>
</svg>
