<svg width="30" height="31" viewBox="0 0 30 31" fill="none" xmlns="http://www.w3.org/2000/svg">
<path d="M12.6111 13.5543C12.6111 14.0388 12.5157 14.5186 12.3302 14.9662C12.1448 15.4138 11.873 15.8206 11.5305 16.1632C11.1878 16.5058 10.7811 16.7776 10.3335 16.963C9.88582 17.1484 9.40603 17.2439 8.92153 17.2439C8.43703 17.2439 7.95723 17.1484 7.5096 16.963C7.06198 16.7776 6.65525 16.5058 6.3126 16.1632C5.96995 15.8206 5.69822 15.4138 5.51282 14.9662C5.32734 14.5186 5.23194 14.0388 5.23194 13.5543C5.23194 12.5757 5.62071 11.6373 6.3126 10.9454C7.00457 10.2534 7.94303 9.86471 8.92153 9.86471C9.90003 9.86471 10.8385 10.2534 11.5305 10.9454C12.2223 11.6373 12.6111 12.5757 12.6111 13.5543ZM10.5614 13.5543C10.5614 13.1193 10.3885 12.7022 10.0811 12.3948C9.77349 12.0872 9.35641 11.9145 8.92153 11.9145C8.48665 11.9145 8.06956 12.0872 7.76199 12.3948C7.45451 12.7022 7.28169 13.1193 7.28169 13.5543C7.28169 13.9892 7.45451 14.4063 7.76199 14.7138C8.06956 15.0213 8.48665 15.1941 8.92153 15.1941C9.35641 15.1941 9.77349 15.0213 10.0811 14.7138C10.3885 14.4063 10.5614 13.9892 10.5614 13.5543ZM8.92153 26.2628C9.90003 26.2628 10.8385 25.8741 11.5305 25.1822C12.2223 24.4903 12.6111 23.5518 12.6111 22.5732C12.6111 21.5947 12.2223 20.6563 11.5305 19.9643C10.8385 19.2724 9.90003 18.8836 8.92153 18.8836C7.94303 18.8836 7.00457 19.2724 6.3126 19.9643C5.62071 20.6563 5.23194 21.5947 5.23194 22.5732C5.23194 23.5518 5.62071 24.4903 6.3126 25.1822C7.00457 25.8741 7.94303 26.2628 8.92153 26.2628ZM8.92153 24.2131C8.48665 24.2131 8.06956 24.0403 7.76199 23.7328C7.45451 23.4253 7.28169 23.0082 7.28169 22.5732C7.28169 22.1383 7.45451 21.7213 7.76199 21.4137C8.06956 21.1062 8.48665 20.9335 8.92153 20.9335C9.35641 20.9335 9.77349 21.1062 10.0811 21.4137C10.3885 21.7213 10.5614 22.1383 10.5614 22.5732C10.5614 23.0082 10.3885 23.4253 10.0811 23.7328C9.77349 24.0403 9.35641 24.2131 8.92153 24.2131ZM6.25681 5.76515C5.985 5.76515 5.72432 5.87312 5.53216 6.06536C5.33991 6.25752 5.23194 6.51821 5.23194 6.79002C5.23194 7.06183 5.33991 7.32251 5.53216 7.51476C5.72432 7.70691 5.985 7.81489 6.25681 7.81489H23.8849C24.1567 7.81489 24.4174 7.70691 24.6095 7.51476C24.8018 7.32251 24.9097 7.06183 24.9097 6.79002C24.9097 6.51821 24.8018 6.25752 24.6095 6.06536C24.4174 5.87312 24.1567 5.76515 23.8849 5.76515H6.25681ZM14.251 13.7592C14.251 13.1935 14.71 12.7343 15.2758 12.7343H23.8849C24.1567 12.7343 24.4174 12.8423 24.6095 13.0345C24.8018 13.2267 24.9097 13.4874 24.9097 13.7592C24.9097 14.0311 24.8018 14.2918 24.6095 14.4839C24.4174 14.6762 24.1567 14.7842 23.8849 14.7842H15.2758C14.71 14.7842 14.251 14.325 14.251 13.7592ZM15.2758 21.3434C15.004 21.3434 14.7433 21.4513 14.5511 21.6436C14.3589 21.8357 14.251 22.0964 14.251 22.3682C14.251 22.6401 14.3589 22.9008 14.5511 23.093C14.7433 23.2852 15.004 23.3932 15.2758 23.3932H23.8849C24.1567 23.3932 24.4174 23.2852 24.6095 23.093C24.8018 22.9008 24.9097 22.6401 24.9097 22.3682C24.9097 22.0964 24.8018 21.8357 24.6095 21.6436C24.4174 21.4513 24.1567 21.3434 23.8849 21.3434H15.2758ZM5.43694 0.845703C4.0778 0.845703 2.77445 1.38556 1.8134 2.3466C0.852355 3.30765 0.3125 4.611 0.3125 5.97014V25.2379C0.3125 26.5971 0.852355 27.9004 1.8134 28.8615C2.77445 29.8225 4.0778 30.3624 5.43694 30.3624H24.7047C26.0639 30.3624 27.3672 29.8225 28.3283 28.8615C29.2893 27.9004 29.8292 26.5971 29.8292 25.2379V5.97014C29.8292 4.611 29.2893 3.30765 28.3283 2.3466C27.3672 1.38556 26.0639 0.845703 24.7047 0.845703H5.43694ZM2.36224 5.97014C2.36224 5.15471 2.68624 4.37265 3.2628 3.796C3.83944 3.21944 4.62151 2.89544 5.43694 2.89544H24.7047C25.5202 2.89544 26.3022 3.21944 26.8789 3.796C27.4554 4.37265 27.7794 5.15471 27.7794 5.97014V25.2379C27.7794 26.0534 27.4554 26.8354 26.8789 27.4121C26.3022 27.9886 25.5202 28.3126 24.7047 28.3126H5.43694C4.62151 28.3126 3.83944 27.9886 3.2628 27.4121C2.68624 26.8354 2.36224 26.0534 2.36224 25.2379V5.97014Z" fill="#FCFCFD"/>
</svg>
