<svg width="43" height="35" viewBox="0 0 43 35" fill="none" xmlns="http://www.w3.org/2000/svg">
<g clip-path="url(#clip0_890_4497)">
<g clip-path="url(#clip1_890_4497)">
<path d="M30.9411 14.5968C30.9471 14.5658 30.9411 14.5408 30.9411 14.5098C30.9411 14.4668 30.9351 14.4298 30.9221 14.3858L30.9031 14.3108C30.8971 14.3048 30.8971 14.2928 30.8971 14.2858C30.8741 14.2308 30.8401 14.1798 30.7981 14.1368L26.0571 8.8618C26.0001 8.7998 25.9311 8.7498 25.8541 8.7158C25.7771 8.6808 25.6941 8.6628 25.6101 8.6628H9.95209C9.77709 8.6628 9.61609 8.7368 9.50409 8.8618L4.77009 14.1308C4.72609 14.1808 4.68909 14.2298 4.65809 14.2928C4.65109 14.3048 4.65109 14.3178 4.64509 14.3298C4.63909 14.3418 4.63909 14.3548 4.63309 14.3668C4.61409 14.4228 4.60809 14.4848 4.60809 14.5408V14.5908C4.61409 14.6598 4.62709 14.7278 4.65809 14.7968C4.65809 14.8028 4.66409 14.8028 4.66409 14.8088C4.68909 14.8588 4.71409 14.9018 4.75109 14.9458L17.3171 28.9488C17.3301 28.9678 17.3541 28.9738 17.3671 28.9858C17.3981 29.0168 17.4351 29.0418 17.4731 29.0608C17.5041 29.0798 17.5291 29.0918 17.5601 29.1048C17.6091 29.1228 17.6591 29.1358 17.7151 29.1358C17.7341 29.1358 17.7531 29.1478 17.7711 29.1478C17.7841 29.1478 17.8021 29.1418 17.8151 29.1418C17.8771 29.1358 17.9331 29.1228 17.9891 29.1048C18.0141 29.0918 18.0391 29.0798 18.0571 29.0668C18.1011 29.0418 18.1441 29.0108 18.1821 28.9738C18.1941 28.9608 18.2071 28.9608 18.2191 28.9488L30.7421 14.9958V14.9888L30.7791 14.9458C30.8041 14.9208 30.8161 14.8898 30.8351 14.8588C30.8601 14.8208 30.8791 14.7778 30.8971 14.7338C30.9221 14.6778 30.9351 14.6408 30.9411 14.5968ZM28.9941 13.9258H22.9601L21.1311 9.8628H25.3421L28.9941 13.9258ZM13.8211 15.1318H21.7211L17.7771 26.6658L13.8211 15.1318ZM13.9141 13.9258L15.7431 9.8628H19.8061L21.6341 13.9258H13.9141ZM10.2191 9.8568H14.4241L12.5961 13.9188H6.56709L10.2191 9.8568ZM12.5461 15.1318L16.2471 25.9258L6.56109 15.1318H12.5461ZM19.3081 25.9198L23.0031 15.1258H28.9941L19.3081 25.9198ZM17.7771 1.8628C18.1131 1.8628 18.3811 1.5958 18.3811 1.2598V-1.0542C18.3811 -1.2142 18.3171 -1.3682 18.2041 -1.4812C18.0911 -1.5942 17.9371 -1.6582 17.7771 -1.6582C17.6171 -1.6582 17.4641 -1.5942 17.3511 -1.4812C17.2381 -1.3682 17.1741 -1.2142 17.1741 -1.0542V1.2598C17.1741 1.5898 17.4411 1.8628 17.7771 1.8628ZM8.75709 3.8348C8.83809 3.9718 8.96909 4.0718 9.12309 4.1128C9.27709 4.1538 9.44009 4.1318 9.57809 4.0528C9.86509 3.8848 9.96409 3.5178 9.80209 3.2318L8.64509 1.2288C8.47709 0.942797 8.11009 0.842797 7.82409 1.0108C7.53809 1.1788 7.43809 1.5458 7.60009 1.8318L8.75709 3.8348ZM0.757094 9.1228L2.76009 10.2798C2.85409 10.3358 2.95909 10.3608 3.05909 10.3608C3.27009 10.3608 3.46909 10.2548 3.58109 10.0628C3.62109 9.9938 3.64709 9.9178 3.65809 9.8398C3.66809 9.7608 3.66309 9.6808 3.64209 9.6048C3.62109 9.5278 3.58509 9.4568 3.53609 9.3938C3.48709 9.3318 3.42709 9.2798 3.35709 9.2408L1.35409 8.0838C1.28709 8.0428 1.21209 8.0158 1.13409 8.0048C1.05509 7.9938 0.976094 7.9978 0.899094 8.0168C0.823094 8.0368 0.751094 8.0718 0.688094 8.1198C0.625094 8.1678 0.573094 8.2268 0.533094 8.2958C0.371094 8.5878 0.471094 8.9548 0.757094 9.1228ZM1.39209 18.2488C1.39209 17.9128 1.12409 17.6458 0.788094 17.6458H-1.52591C-1.68591 17.6458 -1.83891 17.7088 -1.95291 17.8218C-2.06591 17.9358 -2.12891 18.0888 -2.12891 18.2488C-2.12891 18.4088 -2.06591 18.5628 -1.95291 18.6758C-1.83891 18.7888 -1.68591 18.8528 -1.52591 18.8528H0.788094C1.11809 18.8528 1.39209 18.5848 1.39209 18.2488ZM2.76009 26.2238L0.757094 27.3808C0.687094 27.4198 0.625094 27.4718 0.574094 27.5348C0.524094 27.5978 0.488094 27.6698 0.466094 27.7468C0.444094 27.8238 0.438094 27.9048 0.448094 27.9848C0.459094 28.0648 0.485094 28.1408 0.525094 28.2108C0.565094 28.2798 0.619094 28.3408 0.683094 28.3888C0.747094 28.4378 0.821094 28.4728 0.899094 28.4918C0.976094 28.5118 1.05709 28.5148 1.13709 28.5028C1.21609 28.4908 1.29209 28.4618 1.36109 28.4198L3.36409 27.2628C3.65009 27.0948 3.74909 26.7278 3.58809 26.4418C3.50709 26.3038 3.37409 26.2028 3.21909 26.1618C3.06409 26.1218 2.89909 26.1438 2.76009 26.2238ZM9.58509 32.4448C9.51609 32.4048 9.44109 32.3788 9.36209 32.3678C9.28309 32.3578 9.20309 32.3628 9.12709 32.3838C9.05009 32.4048 8.97909 32.4408 8.91609 32.4898C8.85409 32.5388 8.80209 32.5998 8.76309 32.6688L7.60609 34.6718C7.56609 34.7408 7.54009 34.8158 7.53009 34.8948C7.52009 34.9738 7.52509 35.0528 7.54609 35.1298C7.56709 35.2058 7.60309 35.2778 7.65109 35.3398C7.70009 35.4028 7.76109 35.4548 7.83009 35.4928C7.92409 35.5488 8.02909 35.5738 8.12909 35.5738C8.34009 35.5738 8.53909 35.4688 8.65109 35.2758L9.80909 33.2728C9.97009 32.9798 9.87709 32.6068 9.58509 32.4448ZM17.7771 34.6348C17.4411 34.6348 17.1741 34.9028 17.1741 35.2378V37.5528C17.1741 37.8888 17.4411 38.1558 17.7771 38.1558C18.1131 38.1558 18.3811 37.8888 18.3811 37.5528V35.2378C18.3811 35.0778 18.3171 34.9248 18.2041 34.8118C18.0911 34.6988 17.9371 34.6348 17.7771 34.6348ZM26.7981 32.6628C26.7171 32.5258 26.5861 32.4248 26.4331 32.3828C26.2791 32.3418 26.1161 32.3608 25.9771 32.4388C25.6901 32.6068 25.5911 32.9738 25.7531 33.2598L26.9101 35.2628C26.9911 35.3998 27.1221 35.4998 27.2761 35.5408C27.4291 35.5808 27.5931 35.5598 27.7311 35.4808C28.0171 35.3128 28.1171 34.9458 27.9551 34.6598L26.7981 32.6628ZM34.7981 27.3748L32.7951 26.2178C32.7261 26.1778 32.6511 26.1518 32.5721 26.1408C32.4931 26.1308 32.4131 26.1358 32.3371 26.1568C32.2601 26.1778 32.1891 26.2138 32.1261 26.2628C32.0641 26.3118 32.0121 26.3728 31.9731 26.4418C31.9331 26.5108 31.9071 26.5858 31.8971 26.6648C31.8871 26.7428 31.8921 26.8228 31.9131 26.8998C31.9341 26.9758 31.9701 27.0478 32.0191 27.1098C32.0671 27.1728 32.1281 27.2248 32.1971 27.2628L34.2011 28.4198C34.2941 28.4758 34.4001 28.5008 34.4991 28.5008C34.7111 28.5008 34.9101 28.3948 35.0221 28.2028C35.1831 27.9098 35.0841 27.5428 34.7981 27.3748ZM37.0811 17.6458H34.7671C34.4311 17.6458 34.1631 17.9128 34.1631 18.2488C34.1631 18.5848 34.4311 18.8528 34.7671 18.8528H37.0811C37.4171 18.8528 37.6841 18.5848 37.6841 18.2488C37.6841 17.9128 37.4171 17.6458 37.0811 17.6458ZM32.4901 10.3548C32.5891 10.3548 32.6951 10.3298 32.7881 10.2738L34.7921 9.1168C35.0781 8.9488 35.1771 8.5818 35.0151 8.2958C34.9351 8.1578 34.8041 8.0578 34.6511 8.0158C34.4971 7.9738 34.3331 7.9938 34.1941 8.0718L32.1911 9.2288C31.9051 9.3968 31.8051 9.7638 31.9671 10.0498C32.0791 10.2428 32.2851 10.3548 32.4901 10.3548ZM25.9701 4.0528C26.0641 4.1088 26.1691 4.1338 26.2691 4.1338C26.4801 4.1338 26.6791 4.0278 26.7911 3.8348L27.9491 1.8318C27.9891 1.7638 28.0151 1.6878 28.0251 1.6098C28.0351 1.5308 28.0301 1.4508 28.0091 1.3748C27.9881 1.2978 27.9521 1.2268 27.9031 1.1638C27.8551 1.1018 27.7941 1.0498 27.7251 1.0108C27.6561 0.970797 27.5811 0.944797 27.5021 0.933797C27.4231 0.923797 27.3431 0.928797 27.2671 0.949797C27.1901 0.970797 27.1191 1.0068 27.0561 1.0558C26.9941 1.1048 26.9421 1.1658 26.9031 1.2348L25.7461 3.2378C25.7071 3.3058 25.6821 3.3818 25.6721 3.4588C25.6621 3.5368 25.6681 3.6168 25.6891 3.6918C25.7091 3.7678 25.7451 3.8388 25.7931 3.9008C25.8421 3.9628 25.9021 4.0148 25.9701 4.0528Z" fill="#4085FA"/>
</g>
</g>
<defs>
<clipPath id="clip0_890_4497">
<rect width="42" height="35" fill="white" transform="translate(0.230469)"/>
</clipPath>
<clipPath id="clip1_890_4497">
<rect width="42" height="35" fill="white" transform="translate(0.230469)"/>
</clipPath>
</defs>
</svg>
