<svg width="42" height="42" viewBox="0 0 42 42" fill="none" xmlns="http://www.w3.org/2000/svg">
<g clip-path="url(#clip0_890_5221)">
<path d="M10.4375 11.2233C10.9665 10.6123 11.5425 10.0453 12.1615 9.52734" stroke="#4085FA" stroke-width="1.2" stroke-linecap="round" stroke-linejoin="round"/>
<path d="M7.14062 17.7496C7.50763 16.1346 8.13763 14.5916 9.00363 13.1846" stroke="#4085FA" stroke-width="1.2" stroke-linecap="round" stroke-linejoin="round"/>
<path d="M12.0688 32.7029C8.82181 29.9409 6.75781 25.7929 6.75781 21.1539C6.75781 20.9779 6.76081 20.8029 6.76681 20.6279" stroke="#4085FA" stroke-width="1.2" stroke-linecap="round" stroke-linejoin="round"/>
<path d="M28.758 34.3281C26.63 35.5271 24.182 36.2101 21.577 36.2101C18.98 36.2101 16.54 35.5321 14.418 34.3401" stroke="#4085FA" stroke-width="1.2" stroke-linecap="round" stroke-linejoin="round"/>
<path d="M34.1407 13.1699C35.5687 15.4839 36.3947 18.2209 36.3947 21.1549C36.3947 25.7859 34.3357 29.9289 31.0977 32.6909" stroke="#4085FA" stroke-width="1.2" stroke-linecap="round" stroke-linejoin="round"/>
<path d="M30.8633 9.41895C31.4113 9.86695 31.9273 10.3539 32.4073 10.8759" stroke="#4085FA" stroke-width="1.2" stroke-linecap="round" stroke-linejoin="round"/>
<path d="M14.5078 7.91666C16.6078 6.75666 19.0148 6.09766 21.5738 6.09766C24.0668 6.09766 26.4168 6.72366 28.4778 7.82866" stroke="#4085FA" stroke-width="1.2" stroke-linecap="round" stroke-linejoin="round"/>
<path d="M22.8164 11.3606C24.4854 10.3106 26.3244 9.48557 28.2994 8.93457" stroke="#4085FA" stroke-width="1.2" stroke-linecap="round" stroke-linejoin="round"/>
<path d="M16.7422 17.1671C17.8132 15.6291 19.0812 14.2411 20.5122 13.0391" stroke="#4085FA" stroke-width="1.2" stroke-linecap="round" stroke-linejoin="round"/>
<path d="M13.0404 32.0745C12.5064 27.6645 13.3504 23.3605 15.2554 19.6465" stroke="#4085FA" stroke-width="1.2" stroke-linecap="round" stroke-linejoin="round"/>
<path d="M20.3363 11.3609C18.6113 10.2759 16.7043 9.42988 14.6523 8.87988" stroke="#4085FA" stroke-width="1.2" stroke-linecap="round" stroke-linejoin="round"/>
<path d="M28.4437 20.7931C27.1257 17.8011 25.1397 15.1391 22.6367 13.0391" stroke="#4085FA" stroke-width="1.2" stroke-linecap="round" stroke-linejoin="round"/>
<path d="M30.0418 26.3558C29.9008 25.3928 29.6958 24.4418 29.4258 23.5078" stroke="#4085FA" stroke-width="1.2" stroke-linecap="round" stroke-linejoin="round"/>
<path d="M30.1055 32.1467C30.2295 31.1487 30.2845 30.1427 30.2685 29.1357" stroke="#4085FA" stroke-width="1.2" stroke-linecap="round" stroke-linejoin="round"/>
<path d="M14.6037 18.1049C12.4687 18.0939 10.3017 18.3259 8.13672 18.8199" stroke="#4085FA" stroke-width="1.2" stroke-linecap="round" stroke-linejoin="round"/>
<path d="M27.7473 21.4227C24.5693 19.7387 21.0773 18.6507 17.4453 18.2637" stroke="#4085FA" stroke-width="1.2" stroke-linecap="round" stroke-linejoin="round"/>
<path d="M35.1971 27.0897C33.6941 25.5037 32.0191 24.0937 30.2031 22.8867" stroke="#4085FA" stroke-width="1.2" stroke-linecap="round" stroke-linejoin="round"/>
<path d="M29.7031 20.8753C31.1231 18.5643 32.2161 16.0633 32.9491 13.4453" stroke="#4085FA" stroke-width="1.2" stroke-linecap="round" stroke-linejoin="round"/>
<path d="M14.6055 33.0731C19.9625 31.2051 24.6505 27.7651 28.0825 23.2441" stroke="#4085FA" stroke-width="1.2" stroke-linecap="round" stroke-linejoin="round"/>
<path d="M21.5773 13.52C20.7913 13.52 20.1523 12.87 20.1523 12.072C20.1523 11.274 20.7913 10.625 21.5773 10.625C22.3633 10.625 23.0023 11.274 23.0023 12.072C23.0023 12.87 22.3633 13.52 21.5773 13.52Z" stroke="#4085FA" stroke-width="1.2" stroke-linecap="round" stroke-linejoin="round"/>
<path d="M16.0295 19.8814C15.2445 19.8814 14.6055 19.2314 14.6055 18.4334C14.6055 17.6354 15.2445 16.9854 16.0295 16.9854C16.8155 16.9854 17.4545 17.6354 17.4545 18.4334C17.4545 19.2314 16.8155 19.8814 16.0295 19.8814Z" stroke="#4085FA" stroke-width="1.2" stroke-linecap="round" stroke-linejoin="round"/>
<path d="M28.9914 23.5766C28.2054 23.5766 27.5664 22.9276 27.5664 22.1296C27.5664 21.3306 28.2054 20.6816 28.9914 20.6816C29.7774 20.6816 30.4164 21.3306 30.4164 22.1296C30.4164 22.9276 29.7774 23.5766 28.9914 23.5766Z" stroke="#4085FA" stroke-width="1.2" stroke-linecap="round" stroke-linejoin="round"/>
<path d="M13.2531 34.9536C12.4671 34.9536 11.8281 34.3046 11.8281 33.5066C11.8281 32.7086 12.4671 32.0586 13.2531 32.0586C14.0391 32.0586 14.6781 32.7086 14.6781 33.5066C14.6781 34.3046 14.0391 34.9536 13.2531 34.9536Z" stroke="#4085FA" stroke-width="1.2" stroke-linecap="round" stroke-linejoin="round"/>
<path d="M29.9836 35.0366C29.1976 35.0366 28.5586 34.3866 28.5586 33.5886C28.5586 32.7906 29.1976 32.1406 29.9836 32.1406C30.7696 32.1406 31.4086 32.7906 31.4086 33.5886C31.4086 34.3866 30.7696 35.0366 29.9836 35.0366Z" stroke="#4085FA" stroke-width="1.2" stroke-linecap="round" stroke-linejoin="round"/>
<path d="M33.3039 13.4468C32.5179 13.4468 31.8789 12.7968 31.8789 11.9988C31.8789 11.2008 32.5179 10.5508 33.3039 10.5508C34.0899 10.5508 34.7289 11.2008 34.7289 11.9988C34.7289 12.7968 34.0899 13.4468 33.3039 13.4468Z" stroke="#4085FA" stroke-width="1.2" stroke-linecap="round" stroke-linejoin="round"/>
<path d="M29.6867 10.0464C28.9007 10.0464 28.2617 9.39639 28.2617 8.59839C28.2617 7.80039 28.9007 7.15039 29.6867 7.15039C30.4727 7.15039 31.1117 7.80039 31.1117 8.59839C31.1117 9.39639 30.4727 10.0464 29.6867 10.0464Z" stroke="#4085FA" stroke-width="1.2" stroke-linecap="round" stroke-linejoin="round"/>
<path d="M13.2531 10.0464C12.4671 10.0464 11.8281 9.39639 11.8281 8.59839C11.8281 7.80039 12.4671 7.15039 13.2531 7.15039C14.0391 7.15039 14.6781 7.80039 14.6781 8.59839C14.6781 9.39639 14.0391 10.0464 13.2531 10.0464Z" stroke="#4085FA" stroke-width="1.2" stroke-linecap="round" stroke-linejoin="round"/>
<path d="M6.75703 20.6274C5.97103 20.6274 5.33203 19.9784 5.33203 19.1794C5.33203 18.3814 5.97103 17.7324 6.75703 17.7324C7.54203 17.7324 8.18203 18.3814 8.18203 19.1794C8.18203 19.9784 7.54203 20.6274 6.75703 20.6274Z" stroke="#4085FA" stroke-width="1.2" stroke-linecap="round" stroke-linejoin="round"/>
</g>
<defs>
<clipPath id="clip0_890_5221">
<rect width="41" height="41" fill="white" transform="translate(0.6875 0.580078)"/>
</clipPath>
</defs>
</svg>
