<svg width="100" height="100" viewBox="0 0 100 100" fill="none" xmlns="http://www.w3.org/2000/svg">
<g filter="url(#filter0_d_890_4720)">
<g clip-path="url(#clip0_890_4720)">
<rect x="3.01562" y="2.55664" width="94.4495" height="94.4495" rx="47.2247" fill="white" fill-opacity="0.01" shape-rendering="crispEdges"/>
<path d="M97.4758 49.7814C97.4758 23.6999 76.3301 2.55664 50.2457 2.55664C24.1612 2.55664 3.01562 23.6999 3.01562 49.7814C3.01562 75.8629 24.1612 97.0061 50.2457 97.0061C76.3301 97.0061 97.4758 75.8629 97.4758 49.7814Z" fill="#2679F3"/>
<path d="M47.0197 74.021C46.4682 73.947 45.9167 73.8529 45.372 73.7453C45.1769 73.7049 44.9819 73.6578 44.7869 73.6175C44.5851 73.5704 44.3901 73.5233 44.195 73.4695C42.8907 73.1373 41.6172 72.6941 40.3885 72.1447C40.2473 72.0841 40.1061 72.0169 39.9716 71.9563C39.8707 71.9093 39.7765 71.8689 39.6891 71.8218C39.3596 71.6671 39.0368 71.499 38.7207 71.3309C38.3575 71.1359 38.001 70.9341 37.6514 70.7189C37.4294 70.5844 37.2075 70.4431 36.9923 70.3019C36.7704 70.1607 36.5551 70.0194 36.3467 69.8715C36.1314 69.7235 35.923 69.5756 35.7145 69.4209C35.506 69.2662 35.2975 69.1048 35.0957 68.9434C34.894 68.782 34.699 68.6206 34.4972 68.4525C34.3291 68.3112 34.1676 68.17 33.9995 68.0221C33.7776 67.827 33.5557 67.6252 33.3472 67.4168C33.1588 67.2419 32.9773 67.0604 32.7957 66.872C32.4326 66.5021 32.0828 66.1255 31.7466 65.7355C31.5784 65.5404 31.4103 65.3387 31.2489 65.1369C31.0875 64.9352 30.9261 64.7334 30.7714 64.5317C30.2917 63.9052 29.845 63.2542 29.4331 62.5813C29.3053 62.3728 29.1775 62.1576 29.0497 61.9424C28.9219 61.7205 28.7942 61.4918 28.6731 61.2632C28.5722 61.0681 28.4714 60.8798 28.3705 60.6848C27.7598 59.4569 27.2493 58.1816 26.8438 56.8716C26.7766 56.6429 26.7093 56.4142 26.6488 56.1789C26.5748 55.9099 26.5076 55.6408 26.4403 55.3651C26.3865 55.1297 26.3327 54.8876 26.2789 54.6455C26.2346 54.4168 26.1904 54.18 26.1462 53.953L26.0808 53.5681C26.0169 53.121 25.9517 52.6664 25.909 52.2042C25.8888 52.0025 25.8687 51.794 25.8552 51.5855C25.8351 51.3972 25.8283 51.2022 25.8216 51.0138C25.8081 50.8323 25.8014 50.644 25.7947 50.4624C25.788 50.2069 25.7812 49.9513 25.7812 49.6957C25.7812 49.272 25.7947 48.8483 25.8149 48.4314C25.8216 48.2229 25.8351 48.0144 25.8552 47.8059C25.8687 47.5974 25.8888 47.389 25.909 47.1872C25.9292 46.9585 25.9561 46.7299 25.9897 46.5012C26.0099 46.3196 26.0368 46.138 26.0637 45.9565C26.0973 45.7547 26.1309 45.553 26.1646 45.3512C26.2184 45.0553 26.2722 44.7594 26.3394 44.4702C26.3731 44.302 26.4134 44.1339 26.4538 43.9725C26.5143 43.7237 26.5748 43.4748 26.6421 43.2327C26.6757 43.1184 26.7093 42.9973 26.743 42.8763C27.2086 41.2631 27.8373 39.7015 28.6193 38.2157C28.8106 37.865 29.0113 37.5144 29.2103 37.1749C29.7998 36.1672 30.4677 35.2074 31.2077 34.3044C31.3378 34.1458 31.4683 33.9761 31.5986 33.8241C32.6745 32.5609 33.873 31.4075 35.1764 30.3807C35.3042 30.2799 35.4387 30.179 35.5732 30.0781C35.8086 29.8965 36.0507 29.7217 36.2928 29.5535C36.5215 29.3921 36.7502 29.2374 36.9855 29.0895C37.0259 29.0626 37.073 29.0289 37.12 29.0021C37.4092 28.8138 37.7051 28.6322 38.0078 28.4573C38.0414 28.4371 38.075 28.417 38.1087 28.3967C38.3777 28.2421 38.6467 28.0942 38.9224 27.9529C39.2923 27.7579 39.6756 27.5696 40.059 27.3947C40.2944 27.2871 40.5297 27.1795 40.7718 27.0786C40.8727 27.0383 40.9669 26.9979 41.0678 26.9576C41.3771 26.8298 41.6932 26.7088 42.0093 26.5944C42.0295 26.5877 42.0429 26.581 42.0631 26.5742C42.3792 26.4599 42.702 26.3523 43.0316 26.2514C43.0483 26.243 43.0667 26.2384 43.0854 26.238C43.4351 26.1236 43.7915 26.0295 44.148 25.9353C44.1634 25.9299 44.1791 25.9254 44.195 25.9219C44.5515 25.8277 44.9146 25.747 45.2711 25.673C45.6477 25.5923 46.0176 25.5251 46.3942 25.4645C46.4909 25.4493 46.5873 25.4345 46.6833 25.4201C47.2227 25.3363 47.7741 25.4522 48.2342 25.7461C51.1975 27.6724 53.7113 30.2141 55.6047 33.1985C55.6901 33.3313 55.7432 33.4821 55.7599 33.6391C55.7766 33.796 55.7565 33.9546 55.701 34.1024C55.6455 34.2501 55.5563 34.3829 55.4404 34.4901C55.3246 34.5972 55.1853 34.6758 55.0336 34.7196C51.0408 35.8371 47.4336 38.0342 44.6087 41.0693C41.7839 44.1044 39.851 47.8599 39.0225 51.9225C38.1941 55.9852 38.5023 60.1976 39.9132 64.0964C41.3242 67.9953 43.7832 71.4294 47.0197 74.021Z" fill="#FCFCFD"/>
<path d="M52.2186 25.3105C52.7701 25.3845 53.3216 25.4787 53.8663 25.5863C54.0613 25.6266 54.2564 25.6737 54.4514 25.714C54.6532 25.7611 54.8482 25.8082 55.0432 25.862C56.3476 26.1942 57.6211 26.6374 58.8498 27.1869C58.991 27.2474 59.1322 27.3147 59.2667 27.3752C59.3676 27.4223 59.4618 27.4627 59.5492 27.5097C59.8787 27.6644 60.2015 27.8325 60.5176 28.0007C60.8808 28.1957 61.2372 28.3975 61.5869 28.6126C61.8089 28.7472 62.0308 28.8884 62.246 29.0296C62.4679 29.1708 62.6831 29.3121 62.8916 29.46C63.1068 29.608 63.3153 29.756 63.5238 29.9107C63.7323 30.0653 63.9408 30.2267 64.1426 30.3881C64.3443 30.5495 64.5393 30.7109 64.7411 30.879C64.9092 31.0203 65.0706 31.1615 65.2388 31.3095C65.4607 31.5045 65.6826 31.7063 65.8911 31.9147C66.0794 32.0896 66.261 32.2712 66.4426 32.4595C66.8057 32.8294 67.1555 33.206 67.4917 33.5961C67.6599 33.7911 67.828 33.9928 67.9894 34.1946C68.1508 34.3964 68.3122 34.5981 68.4669 34.7999C68.9465 35.4263 69.3933 36.0773 69.8052 36.7502C69.933 36.9587 70.0608 37.1739 70.1886 37.3891C70.3163 37.611 70.4441 37.8397 70.5652 38.0684C70.666 38.2634 70.7669 38.4517 70.8678 38.6468C71.4785 39.8747 71.989 41.1499 72.3944 42.46C72.4617 42.6886 72.5289 42.9173 72.5895 43.1526C72.6635 43.4217 72.7307 43.6907 72.798 43.9664C72.8517 44.2018 72.9056 44.4439 72.9594 44.686C73.0036 44.9147 73.0479 45.1515 73.0921 45.3785L73.1575 45.7635C73.2214 46.2105 73.2866 46.6651 73.3292 47.1273C73.3494 47.3291 73.3696 47.5375 73.3831 47.746C73.4032 47.9344 73.4099 48.1294 73.4167 48.3177C73.4301 48.4993 73.4368 48.6876 73.4436 48.8691C73.4503 49.1247 73.457 49.3802 73.457 49.6358C73.457 50.0595 73.4436 50.4832 73.4234 50.9002C73.4167 51.1086 73.4032 51.3171 73.3831 51.5256C73.3696 51.7341 73.3494 51.9426 73.3292 52.1444C73.3091 52.373 73.2822 52.6016 73.2485 52.8303C73.2284 53.0119 73.2015 53.1935 73.1746 53.3751C73.141 53.5768 73.1073 53.7786 73.0737 53.9803C73.0199 54.2763 72.9661 54.5722 72.8988 54.8613C72.8652 55.0295 72.8248 55.1976 72.7845 55.359C72.724 55.6079 72.6634 55.8567 72.5962 56.0988C72.5626 56.2131 72.5289 56.3342 72.4953 56.4552C72.0297 58.0684 71.401 59.63 70.619 61.1159C70.4277 61.4665 70.227 61.8172 70.028 62.1566C69.4385 63.1643 68.7706 64.1241 68.0306 65.0271C67.9004 65.1857 67.77 65.3554 67.6397 65.5075C66.5638 66.7706 65.3653 67.9241 64.0619 68.9508C63.9341 69.0516 63.7996 69.1525 63.665 69.2534C63.4297 69.435 63.1875 69.6099 62.9454 69.778C62.7168 69.9394 62.4881 70.0941 62.2527 70.242C62.2124 70.2689 62.1653 70.3026 62.1182 70.3295C61.8291 70.5178 61.5331 70.6993 61.2305 70.8742C61.1969 70.8944 61.1633 70.9146 61.1296 70.9348C60.8606 71.0894 60.5916 71.2374 60.3159 71.3786C59.946 71.5736 59.5626 71.762 59.1793 71.9368C58.9439 72.0444 58.7085 72.152 58.4664 72.2529C58.3655 72.2932 58.2714 72.3336 58.1705 72.3739C57.8611 72.5017 57.5451 72.6228 57.229 72.7372C57.2088 72.7438 57.1953 72.7506 57.1751 72.7573C56.8591 72.8716 56.5363 72.9792 56.2067 73.0801C56.19 73.0885 56.1716 73.0931 56.1529 73.0936C55.8032 73.2079 55.4467 73.302 55.0903 73.3962C55.0749 73.4016 55.0592 73.4061 55.0432 73.4097C54.6868 73.5038 54.3236 73.5845 53.9672 73.6585C53.5906 73.7392 53.2207 73.8064 52.8441 73.867C52.7474 73.8823 52.651 73.8971 52.555 73.9114C52.0156 73.9952 51.4641 73.8793 51.0041 73.5855C48.0408 71.6592 45.527 69.1174 43.6336 66.133C43.5482 66.0002 43.4951 65.8494 43.4784 65.6924C43.4616 65.5355 43.4818 65.3769 43.5373 65.2291C43.5928 65.0814 43.682 64.9486 43.7979 64.8415C43.9137 64.7343 44.053 64.6557 44.2046 64.6119C48.1975 63.4944 51.8047 61.2973 54.6295 58.2622C57.4544 55.2271 59.3873 51.4716 60.2157 47.409C61.0441 43.3463 60.7359 39.1339 59.325 35.2351C57.9141 31.3363 55.4551 27.9022 52.2186 25.3105Z" fill="#FCFCFD"/>
</g>
</g>
<defs>
<filter id="filter0_d_890_4720" x="0.888145" y="0.429161" width="98.7042" height="98.7042" filterUnits="userSpaceOnUse" color-interpolation-filters="sRGB">
<feFlood flood-opacity="0" result="BackgroundImageFix"/>
<feColorMatrix in="SourceAlpha" type="matrix" values="0 0 0 0 0 0 0 0 0 0 0 0 0 0 0 0 0 0 127 0" result="hardAlpha"/>
<feOffset/>
<feGaussianBlur stdDeviation="1.06374"/>
<feComposite in2="hardAlpha" operator="out"/>
<feColorMatrix type="matrix" values="0 0 0 0 0.0588235 0 0 0 0 0.0470588 0 0 0 0 0.0470588 0 0 0 0.1 0"/>
<feBlend mode="normal" in2="BackgroundImageFix" result="effect1_dropShadow_890_4720"/>
<feBlend mode="normal" in="SourceGraphic" in2="effect1_dropShadow_890_4720" result="shape"/>
</filter>
<clipPath id="clip0_890_4720">
<rect x="3.01562" y="2.55664" width="94.4495" height="94.4495" rx="47.2247" fill="white"/>
</clipPath>
</defs>
</svg>
