<svg width="21" height="20" viewBox="0 0 21 20" fill="none" xmlns="http://www.w3.org/2000/svg">
<path d="M7.58262 4.70217C7.527 4.87343 7.58177 5.05689 7.72208 5.16974L8.97144 6.17399L8.55092 7.72085C8.50378 7.89448 8.56728 8.07516 8.71302 8.18113C8.85885 8.28686 9.05012 8.29152 9.20078 8.19292L10.542 7.31499L11.8832 8.193C11.9531 8.23904 12.035 8.26371 12.1187 8.2638C12.2094 8.26371 12.2977 8.23472 12.3709 8.18113C12.5167 8.07524 12.5803 7.89448 12.533 7.72085L12.1125 6.17399L13.3618 5.16983C13.5022 5.05698 13.557 4.87343 13.5013 4.70217C13.4457 4.53082 13.2935 4.41458 13.1137 4.40585L11.5125 4.32776L10.9436 2.82923C10.8796 2.66085 10.722 2.55208 10.542 2.55208C10.3619 2.55208 10.2042 2.66085 10.1403 2.82915L9.57136 4.32785L7.97033 4.40585C7.79042 4.41458 7.63823 4.53082 7.58262 4.70217ZM9.71558 4.92658C9.79909 4.92252 9.87955 4.8942 9.94712 4.84511C10.0148 4.79594 10.0666 4.72819 10.0963 4.65002L10.5419 3.47621L10.9876 4.65011C11.0172 4.72828 11.0691 4.79602 11.1367 4.84511C11.2043 4.8942 11.2847 4.92252 11.3682 4.92658L12.6223 4.9878L11.6436 5.77433C11.5784 5.82672 11.53 5.89692 11.5042 5.97636C11.4784 6.05589 11.4763 6.14118 11.4982 6.22181L11.8276 7.43344L10.7771 6.74568C10.7071 6.69998 10.6254 6.67556 10.5418 6.67556C10.4582 6.67556 10.3765 6.69998 10.3065 6.74576L9.25606 7.43344L9.58544 6.22189C9.60739 6.14126 9.60536 6.05597 9.5795 5.97645C9.55373 5.89692 9.50523 5.82672 9.44003 5.77433L8.46139 4.9878L9.71558 4.92658ZM10.2394 1.56818V0.457778C10.2394 0.377574 10.2712 0.300591 10.328 0.243871C10.3847 0.187152 10.4617 0.155273 10.5419 0.155273C10.6222 0.155273 10.6991 0.187152 10.7559 0.243871C10.8126 0.300591 10.8445 0.377574 10.8445 0.457778V1.56818C10.8445 1.64846 10.8126 1.72536 10.7559 1.78217C10.6991 1.83889 10.6222 1.87076 10.5419 1.87076C10.4617 1.87076 10.3847 1.83889 10.328 1.78217C10.2712 1.72536 10.2394 1.64846 10.2394 1.56818ZM12.0819 3.36082C12.0283 3.30122 12.0005 3.22271 12.0046 3.1425C12.0089 3.06238 12.0447 2.98727 12.1043 2.93351L13.3416 1.81939C13.3712 1.79276 13.4057 1.77225 13.4431 1.75902C13.4806 1.74571 13.5203 1.74003 13.56 1.74206C13.5996 1.74418 13.6386 1.75402 13.6744 1.77115C13.7103 1.78827 13.7424 1.81226 13.7689 1.84177C13.7956 1.87127 13.8161 1.90578 13.8294 1.94325C13.8426 1.98064 13.8484 2.02041 13.8463 2.06008C13.8442 2.09976 13.8343 2.13859 13.8173 2.17446C13.8001 2.21032 13.7762 2.24245 13.7467 2.26907L12.5092 3.3832C12.4538 3.43331 12.3817 3.46103 12.3069 3.46095C12.2645 3.46103 12.2225 3.45213 12.1838 3.43483C12.145 3.41762 12.1103 3.39236 12.0819 3.36082ZM7.31479 1.84177C7.34141 1.81226 7.37354 1.78827 7.4094 1.77115C7.44527 1.75402 7.4841 1.74418 7.52386 1.74206C7.56354 1.74003 7.60322 1.74571 7.64069 1.75902C7.67817 1.77225 7.71259 1.79276 7.74209 1.81939L8.97949 2.93351C9.0391 2.98727 9.07496 3.06238 9.0792 3.14259C9.08335 3.22271 9.05554 3.30122 9.00188 3.36082C8.94821 3.42051 8.87301 3.45637 8.7928 3.46052C8.71268 3.46476 8.63417 3.43695 8.57457 3.3832L7.33717 2.26907C7.27757 2.21541 7.2417 2.1402 7.23746 2.06008C7.23331 1.97996 7.26112 1.90137 7.31479 1.84177ZM14.4236 5.16974L15.6731 6.17399L15.2526 7.72085C15.2053 7.89448 15.2689 8.07516 15.4147 8.18113C15.5603 8.28686 15.7517 8.29144 15.9024 8.19292L17.2436 7.31499L18.5848 8.193C18.6547 8.23904 18.7365 8.26371 18.8203 8.2638C18.911 8.26371 18.9993 8.23472 19.0724 8.18113C19.2182 8.07533 19.2819 7.89465 19.2345 7.72085L18.814 6.17399L20.0634 5.16983C20.2038 5.05707 20.2585 4.87351 20.2028 4.70217C20.1472 4.53082 19.995 4.41458 19.8152 4.40585L18.2142 4.32776L17.6452 2.82923C17.5814 2.66085 17.4237 2.55208 17.2436 2.55208C17.0635 2.55208 16.9058 2.66085 16.8419 2.82915L16.273 4.32776L14.672 4.40576C14.4921 4.4145 14.3399 4.53082 14.2842 4.70217C14.2286 4.87343 14.2833 5.05698 14.4236 5.16974ZM16.4171 4.92658C16.5006 4.92252 16.5812 4.8942 16.6488 4.84511C16.7164 4.79594 16.7682 4.72811 16.7979 4.64994L17.2435 3.47621L17.6891 4.64994C17.7188 4.72811 17.7706 4.79593 17.8383 4.84502C17.9059 4.8942 17.9864 4.92252 18.0699 4.92658L19.3239 4.98771L18.3453 5.77424C18.2801 5.82655 18.2316 5.89684 18.2059 5.97628C18.18 6.0558 18.1779 6.14109 18.1999 6.22181L18.5292 7.43335L17.4787 6.74568C17.4088 6.6999 17.327 6.67548 17.2434 6.67548C17.1598 6.67548 17.0781 6.6999 17.0082 6.74568L15.9577 7.43335L16.2872 6.22189C16.309 6.14118 16.307 6.05589 16.2811 5.97636C16.2553 5.89692 16.2069 5.82664 16.1417 5.77433L15.163 4.98771L16.4171 4.92658ZM1.02036 5.16974L2.2698 6.17399L1.84928 7.72085C1.80205 7.89448 1.86564 8.07516 2.01138 8.18113C2.15712 8.28686 2.34848 8.29152 2.49913 8.19292L3.84031 7.31499L5.18149 8.193C5.25143 8.23904 5.33325 8.26371 5.41701 8.2638C5.50773 8.26371 5.59599 8.23472 5.66916 8.18113C5.8149 8.07533 5.87848 7.89465 5.83126 7.72085L5.41074 6.17399L6.6601 5.16983C6.80041 5.05715 6.85518 4.8736 6.79956 4.702C6.74386 4.53073 6.59168 4.4145 6.41194 4.40576L4.81082 4.32776L4.24193 2.82923C4.178 2.66085 4.02039 2.55208 3.84031 2.55208C3.66015 2.55208 3.50254 2.66085 3.43861 2.82915L2.86964 4.32776L1.26869 4.40576C1.08878 4.4145 0.936592 4.53082 0.880974 4.702C0.825187 4.87334 0.879957 5.05698 1.02036 5.16974ZM3.01385 4.92658C3.09736 4.92252 3.17782 4.8942 3.24548 4.84511C3.31313 4.79594 3.36493 4.72811 3.39461 4.64994L3.84023 3.47621L4.28584 4.64994C4.31552 4.72811 4.36732 4.79593 4.43498 4.84502C4.50255 4.8942 4.58309 4.92252 4.6666 4.92658L5.92062 4.98771L4.94206 5.77424C4.87686 5.82655 4.82837 5.89684 4.80251 5.97628C4.77665 6.0558 4.77462 6.14109 4.79657 6.22181L5.12595 7.43335L4.07541 6.74568C4.00547 6.6999 3.92374 6.67548 3.84014 6.67548C3.75655 6.67548 3.67482 6.6999 3.60487 6.74568L2.55441 7.43335L2.88379 6.22189C2.90575 6.14118 2.90372 6.05589 2.87786 5.97636C2.852 5.89692 2.80359 5.82664 2.73839 5.77433L1.75975 4.98771L3.01385 4.92658ZM20.1766 16.2268C19.9637 15.5393 19.5276 14.9219 18.9487 14.4885C18.6753 14.2834 18.3729 14.1205 18.0513 14.0049C18.4928 13.6584 18.7771 13.1206 18.7771 12.5172C18.7771 11.4746 17.929 10.6264 16.8864 10.6264C15.8438 10.6264 14.9956 11.4746 14.9956 12.5172C14.9956 13.1199 15.2793 13.6572 15.7199 14.0037C15.1295 14.2143 14.6063 14.5847 14.2058 15.0835C14.0171 14.8195 13.8006 14.5765 13.5599 14.3588C13.0758 13.9207 12.5019 13.5933 11.8783 13.3995C12.5339 12.9649 12.9674 12.2207 12.9674 11.3768C12.9674 10.0395 11.8793 8.95147 10.542 8.95147C9.20459 8.95147 8.11649 10.0395 8.11649 11.3768C8.11649 12.2207 8.5499 12.9649 9.20552 13.3995C8.58195 13.5932 8.00805 13.9207 7.52395 14.3588C7.28325 14.5765 7.06671 14.8195 6.87799 15.0835C6.47747 14.5846 5.95445 14.2143 5.36394 14.0035C5.80447 13.6571 6.08824 13.1197 6.08824 12.5171C6.08824 11.4745 5.23999 10.6263 4.1975 10.6263C3.15484 10.6263 2.30668 11.4745 2.30668 12.5171C2.30668 13.1204 2.59104 13.6583 3.03242 14.0048C2.71092 14.1204 2.40842 14.2834 2.13508 14.4884C1.5561 14.9219 1.12006 15.5392 0.907172 16.2267C0.808824 16.5442 0.863339 16.8665 1.06063 17.1342C1.25792 17.4018 1.54965 17.5492 1.88209 17.5492H6.06492V18.0952C6.06492 18.8808 6.70393 19.5199 7.48952 19.5199H13.5943C14.3798 19.5199 15.0189 18.8808 15.0189 18.0952V17.5493H19.2016C19.5342 17.5493 19.8259 17.4019 20.0232 17.1343C20.2204 16.8666 20.2749 16.5443 20.1766 16.2268ZM16.8864 11.2316C17.5953 11.2316 18.172 11.8083 18.172 12.5172C18.172 13.2261 17.5953 13.8029 16.8864 13.8029C16.1775 13.8029 15.6008 13.2261 15.6008 12.5172C15.6008 11.8083 16.1775 11.2316 16.8864 11.2316ZM8.72167 11.3768C8.72167 10.3732 9.53821 9.55656 10.542 9.55656C11.5456 9.55656 12.3622 10.3732 12.3622 11.3768C12.3622 12.3802 11.5462 13.1966 10.5429 13.1971H10.5409C9.5377 13.1965 8.72167 12.3802 8.72167 11.3768ZM4.1975 11.2314C4.90637 11.2314 5.48306 11.8081 5.48306 12.5171C5.48306 13.226 4.90637 13.8027 4.1975 13.8027C3.48855 13.8027 2.91177 13.226 2.91177 12.5171C2.91177 11.8081 3.48855 11.2314 4.1975 11.2314ZM6.10418 16.944H1.88217C1.74287 16.944 1.63045 16.8872 1.54779 16.775C1.46513 16.663 1.4441 16.5387 1.4853 16.4056C1.85538 15.2107 2.94535 14.4078 4.1975 14.4078C5.14461 14.4078 6.00744 14.8655 6.53809 15.6402C6.32724 16.0499 6.18091 16.4897 6.10418 16.944ZM14.4138 18.0952C14.4137 18.5471 14.0461 18.9147 13.5943 18.9147H7.48952C7.03763 18.9147 6.67001 18.5471 6.67001 18.0952V17.263C6.88909 15.2891 8.55041 13.8027 10.5409 13.8023H10.542H10.5429C12.5334 13.8028 14.1946 15.2891 14.4138 17.263V18.0952ZM19.536 16.7753C19.4535 16.8873 19.3409 16.9441 19.2016 16.9441H14.9796C14.9029 16.4897 14.7566 16.05 14.5457 15.6403C15.0765 14.8656 15.9392 14.408 16.8864 14.408C18.1386 14.408 19.2285 15.2109 19.5985 16.4059C19.6397 16.5388 19.6187 16.663 19.536 16.7753Z" fill="#4085FA" stroke="#4085FA" stroke-width="0.160898"/>
</svg>
