<svg width="88" height="88" viewBox="0 0 88 88" fill="none" xmlns="http://www.w3.org/2000/svg">
<path d="M35.1094 60.3125L60.4844 44L35.1094 27.6875V60.3125ZM44.1719 80.25C39.1573 80.25 34.4448 79.2978 30.0344 77.3935C25.624 75.4892 21.7875 72.907 18.525 69.6469C15.2625 66.3868 12.6803 62.5503 10.7784 58.1375C8.87646 53.7247 7.9243 49.0122 7.92188 44C7.91946 38.9878 8.87163 34.2753 10.7784 29.8625C12.6851 25.4497 15.2673 21.6132 18.525 18.3531C21.7827 15.093 25.6191 12.5108 30.0344 10.6065C34.4496 8.70217 39.1621 7.75 44.1719 7.75C49.1816 7.75 53.8941 8.70217 58.3094 10.6065C62.7246 12.5108 66.5611 15.093 69.8188 18.3531C73.0764 21.6132 75.6598 25.4497 77.569 29.8625C79.4782 34.2753 80.4291 38.9878 80.4219 44C80.4146 49.0122 79.4625 53.7247 77.5654 58.1375C75.6683 62.5503 73.0861 66.3868 69.8188 69.6469C66.5514 72.907 62.715 75.4904 58.3094 77.3971C53.9038 79.3039 49.1913 80.2548 44.1719 80.25Z" fill="white"/>
</svg>
