<svg width="44" height="35" viewBox="0 0 44 35" fill="none" xmlns="http://www.w3.org/2000/svg">
<g clip-path="url(#clip0_890_4503)">
<path d="M16.3605 15.1481L14.4725 15.5151C14.2225 15.5631 13.9925 15.6791 13.8085 15.8481C13.6345 16.0071 13.5045 16.2111 13.4315 16.4361C13.3575 16.6621 13.3435 16.9031 13.3905 17.1341C13.4405 17.3791 13.5585 17.6081 13.7325 17.7941L15.0445 19.2011C15.0845 19.2441 15.1035 19.3021 15.0965 19.3601L14.8615 21.2691C14.8305 21.5221 14.8685 21.7761 14.9735 22.0051C15.0705 22.2181 15.2235 22.4051 15.4155 22.5451C15.6075 22.6841 15.8325 22.7721 16.0665 22.7991C16.1175 22.8051 16.1685 22.8081 16.2195 22.8081C16.4185 22.8081 16.6165 22.7641 16.8005 22.6781L18.5435 21.8651C18.5965 21.8401 18.6575 21.8401 18.7115 21.8651L20.4545 22.6781C20.6845 22.7861 20.9385 22.8271 21.1875 22.7991C21.4215 22.7721 21.6465 22.6841 21.8385 22.5451C22.0305 22.4051 22.1835 22.2181 22.2815 22.0051C22.3855 21.7761 22.4235 21.5221 22.3925 21.2691L22.1585 19.3601C22.1505 19.3021 22.1695 19.2441 22.2105 19.2011L23.5215 17.7941C23.6955 17.6081 23.8135 17.3791 23.8635 17.1341C23.9105 16.9031 23.8965 16.6621 23.8235 16.4361C23.7495 16.2111 23.6195 16.0071 23.4465 15.8481C23.2615 15.6791 23.0315 15.5631 22.7815 15.5151L20.8935 15.1481C20.8355 15.1371 20.7865 15.1011 20.7575 15.0501L19.8255 13.3671C19.7015 13.1441 19.5215 12.9611 19.3025 12.8381C19.0985 12.7221 18.8645 12.6611 18.6275 12.6611C18.3895 12.6611 18.1565 12.7221 17.9515 12.8381C17.7335 12.9611 17.5525 13.1441 17.4285 13.3671L16.4965 15.0501C16.4685 15.1011 16.4185 15.1371 16.3605 15.1481ZM17.5215 15.6171L18.4535 13.9351C18.5025 13.8461 18.5835 13.8331 18.6275 13.8331C18.6705 13.8331 18.7515 13.8461 18.8005 13.9351L19.7335 15.6171C19.9295 15.9721 20.2715 16.2211 20.6705 16.2981L22.5585 16.6651C22.6585 16.6841 22.6955 16.7571 22.7095 16.7981C22.7225 16.8401 22.7345 16.9211 22.6655 16.9951L21.3535 18.4021C21.0765 18.6991 20.9465 19.1001 20.9955 19.5031L21.2305 21.4121C21.2425 21.5131 21.1855 21.5711 21.1505 21.5971C21.1145 21.6231 21.0415 21.6591 20.9495 21.6161L19.2065 20.8031C18.8385 20.6321 18.4165 20.6321 18.0485 20.8031L16.3055 21.6161C16.2125 21.6591 16.1395 21.6231 16.1045 21.5971C16.0695 21.5711 16.0115 21.5131 16.0245 21.4121L16.2585 19.5031C16.3085 19.1001 16.1775 18.6991 15.9005 18.4021L14.5885 16.9951C14.5195 16.9211 14.5315 16.8401 14.5455 16.7981C14.5585 16.7571 14.5965 16.6841 14.6965 16.6651L16.5845 16.2981C16.9825 16.2211 17.3245 15.9731 17.5215 15.6171Z" fill="#4085FA"/>
<path d="M8.21819 16.1599C8.26119 16.1699 8.30519 16.1749 8.34819 16.1749C8.61519 16.1749 8.85719 15.9909 8.91819 15.7189C9.76119 12.0069 12.7032 9.0649 16.4152 8.2229C16.7302 8.1509 16.9282 7.8369 16.8562 7.5219C16.7852 7.2059 16.4712 7.0089 16.1562 7.0799C14.1142 7.5439 12.2482 8.5749 10.7602 10.0639C9.27119 11.5519 8.23919 13.4179 7.77619 15.4599C7.70519 15.7749 7.90219 16.0889 8.21819 16.1599Z" fill="#4085FA"/>
<path d="M16.4152 27.6419C12.7032 26.7989 9.76119 23.8569 8.91819 20.1449C8.84719 19.8299 8.53319 19.6319 8.21819 19.7029C7.90219 19.7749 7.70519 20.0889 7.77619 20.4039C8.23919 22.4459 9.27119 24.3119 10.7592 25.7999C12.2482 27.2889 14.1142 28.3209 16.1562 28.7839C16.1992 28.7939 16.2432 28.7989 16.2862 28.7989C16.5532 28.7989 16.7952 28.6139 16.8562 28.3419C16.9282 28.0269 16.7302 27.7129 16.4152 27.6419Z" fill="#4085FA"/>
<path d="M29.0324 19.7029C28.7174 19.6319 28.4034 19.8299 28.3314 20.1449C27.4894 23.8569 24.5474 26.7989 20.8354 27.6419C20.5194 27.7129 20.3224 28.0269 20.3934 28.3419C20.4554 28.6139 20.6964 28.7979 20.9644 28.7979C21.0074 28.7979 21.0504 28.7939 21.0944 28.7839C23.1364 28.3209 25.0024 27.2889 26.4904 25.7999C27.9794 24.3119 29.0104 22.4459 29.4744 20.4039C29.5454 20.0889 29.3484 19.7749 29.0324 19.7029Z" fill="#4085FA"/>
<path d="M20.8354 8.22319C24.5464 9.06519 27.4894 12.0072 28.3314 15.7192C28.3934 15.9912 28.6344 16.1752 28.9024 16.1752C28.9454 16.1752 28.9884 16.1712 29.0324 16.1612C29.3474 16.0892 29.5454 15.7752 29.4734 15.4602C29.0104 13.4182 27.9784 11.5522 26.4904 10.0642C25.0024 8.57619 23.1364 7.54419 21.0944 7.08119C20.7794 7.00919 20.4654 7.20719 20.3934 7.52219C20.3224 7.83819 20.5194 8.15119 20.8354 8.22319Z" fill="#4085FA"/>
<path d="M18.6241 10.3189C18.9481 10.3189 19.2101 10.0559 19.2101 9.73291V5.04791C19.2101 4.72391 18.9481 4.46191 18.6241 4.46191C18.3011 4.46191 18.0391 4.72391 18.0391 5.04791V9.73291C18.0391 10.0559 18.3011 10.3189 18.6241 10.3189Z" fill="#4085FA"/>
<path d="M18.6241 25.5459C18.3011 25.5459 18.0391 25.8079 18.0391 26.1309V30.8169C18.0391 31.1399 18.3011 31.4019 18.6241 31.4019C18.9481 31.4019 19.2101 31.1399 19.2101 30.8169V26.1309C19.2101 25.8079 18.9481 25.5459 18.6241 25.5459Z" fill="#4085FA"/>
<path d="M31.5132 17.3467H26.8282C26.5042 17.3467 26.2422 17.6087 26.2422 17.9317C26.2422 18.2557 26.5042 18.5177 26.8282 18.5177H31.5132C31.8362 18.5177 32.0992 18.2557 32.0992 17.9317C32.0992 17.6087 31.8362 17.3467 31.5132 17.3467Z" fill="#4085FA"/>
<path d="M11.0132 17.9317C11.0132 17.6087 10.7512 17.3457 10.4272 17.3457H5.74225C5.41825 17.3457 5.15625 17.6087 5.15625 17.9317C5.15625 18.2547 5.41825 18.5177 5.74225 18.5177H10.4272C10.7512 18.5177 11.0132 18.2547 11.0132 17.9317Z" fill="#4085FA"/>
</g>
<defs>
<clipPath id="clip0_890_4503">
<rect width="43" height="35" fill="white" transform="translate(0.621094)"/>
</clipPath>
</defs>
</svg>
