<svg width="20" height="20" viewBox="0 0 20 20" fill="none" xmlns="http://www.w3.org/2000/svg">
<path d="M10.2642 9.51009C10.23 9.47573 10.1895 9.44852 10.1449 9.42993C10.1003 9.41134 10.0524 9.4018 10.0042 9.4018C9.95586 9.4018 9.90803 9.41134 9.86342 9.42993C9.81881 9.44852 9.77833 9.47573 9.74421 9.51009C9.60089 9.65397 9.60089 9.88764 9.74421 10.0319C9.88787 10.1759 10.1204 10.1759 10.2642 10.0319C10.4074 9.88764 10.4074 9.65397 10.2642 9.51009ZM14.9405 4.81233C14.2225 4.09124 13.0603 4.09116 12.3423 4.81233C11.6261 5.53167 11.6261 6.70242 12.3423 7.42226C13.0587 8.14144 14.2242 8.14169 14.9405 7.42218C15.6584 6.70109 15.6585 5.53358 14.9405 4.81233ZM14.4209 6.90024C13.9912 7.33181 13.2918 7.33181 12.862 6.90032C12.4323 6.46842 12.4322 5.76592 12.8619 5.33435C13.2927 4.90162 13.9901 4.90162 14.4209 5.33435C14.8516 5.767 14.8517 6.46751 14.4209 6.90024Z" fill="#4085FA"/>
<path d="M19.0949 0.636452C19.0593 0.600523 19.0167 0.572393 18.9697 0.553806C18.9227 0.535302 18.8724 0.526672 18.822 0.52858C18.7389 0.531567 16.7608 0.611476 14.4094 1.44624C12.5252 2.11455 10.9547 3.0713 9.74139 4.29001C9.46638 4.56666 9.20294 4.85476 8.9519 5.15348C7.75225 4.44418 6.79102 4.66656 6.18326 4.99325C4.78404 5.74545 3.91797 7.78781 3.91797 9.24865C3.91805 9.34648 3.95679 9.44033 4.02569 9.50953C4.09459 9.57874 4.18802 9.61765 4.28541 9.61774C4.33374 9.61774 4.38149 9.60819 4.42609 9.58961C4.4707 9.5711 4.51118 9.54389 4.5453 9.50962C5.28324 8.76837 6.19342 8.81475 6.49073 8.854L6.61944 8.98328C6.36616 9.58853 6.1622 10.1905 6.01259 10.7759C5.95857 10.9877 5.97682 11.2118 6.05704 11.417C5.70331 11.5807 5.36197 11.8212 5.06483 12.1197C4.11904 13.0697 3.92697 15.3852 3.91921 15.4833C3.91508 15.5364 3.92243 15.59 3.94077 15.64C3.95919 15.69 3.9881 15.7355 4.02569 15.7733C4.06328 15.811 4.10855 15.8401 4.15836 15.8586C4.20817 15.8771 4.26146 15.8845 4.31441 15.8802C4.41205 15.8725 6.71716 15.6796 7.66303 14.7296C7.96009 14.4312 8.19941 14.0884 8.36248 13.7331C8.57859 13.8185 8.80105 13.829 9.00105 13.7775C9.5836 13.6272 10.1828 13.4224 10.7854 13.168L10.9141 13.2973C10.9532 13.5959 10.9993 14.5102 10.2614 15.2513C10.21 15.3029 10.1751 15.3687 10.1609 15.4403C10.1467 15.5119 10.154 15.5861 10.1818 15.6535C10.2096 15.7209 10.2567 15.7786 10.3171 15.8192C10.3776 15.8597 10.4486 15.8813 10.5212 15.8814C11.9755 15.8814 14.0087 15.0114 14.7576 13.6059C15.0828 12.9956 15.3042 12.0299 14.598 10.8249C14.8955 10.5727 15.1822 10.3081 15.4577 10.0319C16.671 8.81318 17.6234 7.23558 18.2887 5.34309C19.1199 2.98102 19.1993 0.99409 19.2023 0.910614C19.206 0.808218 19.167 0.708893 19.0949 0.636452ZM4.73951 8.45479C4.96776 7.3452 5.63069 6.12765 6.53022 5.64405C7.13128 5.32102 7.78827 5.35263 8.48681 5.73674C7.88996 6.52578 7.37283 7.3725 6.9431 8.26444C6.93756 8.26112 6.87148 8.17756 6.74856 8.14976C6.69808 8.13823 5.72586 7.92821 4.73951 8.45479ZM7.14342 14.2075C6.63819 14.715 5.453 14.9827 4.70391 15.092C4.81279 14.3395 5.07928 13.1491 5.58443 12.6416C5.86737 12.3574 6.19541 12.1419 6.52518 12.0206L7.76167 13.2627C7.64081 13.5938 7.42636 13.9233 7.14342 14.2075ZM8.81856 13.0624C8.71216 13.0897 8.58899 13.0496 8.49746 12.9578L7.77778 12.235L6.82885 11.2817C6.73724 11.1895 6.69725 11.0658 6.72443 10.9592C6.84207 10.4988 6.99605 10.0264 7.18316 9.54953L10.2217 12.6017C9.74684 12.7897 9.27671 12.9443 8.81856 13.0624ZM14.1097 13.2576C13.6283 14.1611 12.4163 14.8271 11.3116 15.0562C11.6639 14.3906 11.7415 13.5431 11.6128 13.0292C11.5829 12.9099 11.5054 12.8498 11.501 12.8428C12.389 12.411 13.232 11.8916 14.0175 11.2921C14.3999 11.9939 14.4313 12.6539 14.1097 13.2576ZM14.9381 9.50986C14.6021 9.84692 14.2484 10.1656 13.8785 10.4648C12.984 11.1882 11.9997 11.8009 10.9494 12.2887L7.49476 8.81865C7.98033 7.76366 8.59032 6.7748 9.31042 5.87647C9.61045 5.50249 9.93023 5.14435 10.2612 4.81194C11.3497 3.71853 12.7545 2.84825 14.4379 2.22184L17.5167 5.31446C16.8932 7.00532 16.0268 8.41645 14.9381 9.50986ZM17.781 4.53604L15.2128 1.95631C16.612 1.51976 17.8294 1.35629 18.4369 1.29754C18.3784 1.90802 18.2156 3.13071 17.781 4.53604Z" fill="#4085FA"/>
<path d="M9.22654 15.7733C9.08296 15.6292 8.85034 15.6293 8.70693 15.7734L7.66779 16.8175C7.5243 16.9618 7.52438 17.1954 7.66788 17.3396C7.81145 17.4836 8.04408 17.4836 8.18749 17.3395L9.22662 16.2953C9.37011 16.1511 9.37003 15.9175 9.22654 15.7733ZM4.03037 10.5539C3.88696 10.4098 3.65433 10.4098 3.51076 10.5538L2.47129 11.5976C2.3278 11.7416 2.32772 11.9754 2.47121 12.1195C2.61462 12.2636 2.84725 12.2637 2.99082 12.1196L4.03029 11.0758C4.17378 10.9318 4.17386 10.698 4.03037 10.5539ZM6.62849 16.2957C6.48508 16.1515 6.25238 16.1515 6.10888 16.2956L3.61988 18.7954C3.47631 18.9395 3.47631 19.1732 3.6198 19.3174C3.76321 19.4615 3.99592 19.4616 4.13949 19.3174L6.62849 16.8176C6.77198 16.6735 6.77198 16.4397 6.62849 16.2957ZM3.68903 16.2957C3.54554 16.1515 3.31291 16.1515 3.16942 16.2956L0.68042 18.7954C0.536846 18.9395 0.536846 19.1732 0.680337 19.3174C0.823746 19.4615 1.05645 19.4616 1.19995 19.3174L3.68895 16.8176C3.83252 16.6735 3.83252 16.4397 3.68903 16.2957ZM3.51043 13.1636C3.36694 13.0194 3.13423 13.0194 2.99082 13.1636L0.50215 15.6637C0.358658 15.8079 0.358658 16.0416 0.50215 16.1857C0.645641 16.3299 0.87835 16.3299 1.02184 16.1857L3.51043 13.6855C3.65392 13.5414 3.65392 13.3077 3.51043 13.1636ZM11.8247 7.94404C11.6813 7.7999 11.4486 7.7999 11.3051 7.94404L10.7855 8.46589C10.642 8.61003 10.642 8.84378 10.7855 8.98791C10.9291 9.13205 11.1617 9.13205 11.3052 8.98791L11.8247 8.46606C11.9682 8.32192 11.9682 8.08817 11.8247 7.94404Z" fill="#4085FA"/>
</svg>
