<svg width="20" height="20" viewBox="0 0 20 20" fill="none" xmlns="http://www.w3.org/2000/svg">
<mask id="mask0_980_10" style="mask-type:luminance" maskUnits="userSpaceOnUse" x="0" y="0" width="19" height="19">
<path d="M18.7241 0.863281H0.773438V18.8139H18.7241V0.863281Z" fill="white"/>
</mask>
<g mask="url(#mask0_980_10)">
<path fill-rule="evenodd" clip-rule="evenodd" d="M2.21247 2.11215C1.9752 2.00669 1.697 2.06629 1.52377 2.25969C1.35052 2.45309 1.32178 2.73615 1.45261 2.96042L5.46521 9.83917L1.45261 16.7179C1.32178 16.9422 1.35052 17.2252 1.52377 17.4186C1.697 17.612 1.9752 17.6716 2.21247 17.5661L18.368 10.386C18.5841 10.2899 18.7234 10.0756 18.7234 9.83917C18.7234 9.60271 18.5841 9.38843 18.368 9.29239L2.21247 2.11215ZM6.57142 9.36049L3.42026 3.95852L16.6517 9.83917L3.42026 15.7197L6.57141 10.3179H11.5431C11.8075 10.3179 12.0218 10.1035 12.0218 9.83917C12.0218 9.5748 11.8075 9.36049 11.5431 9.36049H6.57142Z" fill="#151515"/>
</g>
</svg>
