<svg width="32" height="31" viewBox="0 0 32 31" fill="none" xmlns="http://www.w3.org/2000/svg">
<mask id="mask0_890_4886" style="mask-type:luminance" maskUnits="userSpaceOnUse" x="0" y="-1" width="32" height="32">
<path d="M31.257 -0.00976562H0.457031V30.7902H31.257V-0.00976562Z" fill="white"/>
</mask>
<g mask="url(#mask0_890_4886)">
<path d="M18.9061 0.991133L20.6944 2.30013C20.989 2.51573 21.3316 2.65818 21.6916 2.71397L23.8822 3.05088C24.966 3.21806 25.9682 3.72617 26.7435 4.50156C27.5189 5.27695 28.0271 6.27915 28.1942 7.36288L28.5292 9.55541C28.585 9.91543 28.7275 10.2581 28.9431 10.5526L30.2521 12.339C30.9011 13.2239 31.251 14.2927 31.251 15.3901C31.251 16.4876 30.9011 17.5563 30.2521 18.4412L28.9431 20.2276C28.7283 20.5227 28.5864 20.8644 28.5292 21.2248L28.1923 23.4154C28.0253 24.4997 27.5171 25.5026 26.7413 26.2784C25.9656 27.0542 24.9627 27.5625 23.8784 27.7294L21.6877 28.0662C21.3274 28.1235 20.9857 28.2653 20.6906 28.4801L18.9042 29.7891C18.0193 30.4382 16.9504 30.7881 15.8531 30.7881C14.7557 30.7881 13.6868 30.4382 12.8019 29.7891L11.0155 28.4801C10.7205 28.2653 10.3788 28.1235 10.0184 28.0662L7.82773 27.7294C6.74408 27.5621 5.7418 27.054 4.96641 26.2786C4.1911 25.5033 3.6829 24.501 3.51573 23.4174L3.1789 21.2267C3.12157 20.8663 2.97981 20.5246 2.76498 20.2296L1.45598 18.4432C0.806954 17.5583 0.457031 16.4894 0.457031 15.392C0.457031 14.2946 0.806954 13.2258 1.45598 12.3409L2.76498 10.5545C2.98058 10.26 3.12303 9.91731 3.1789 9.55738L3.51573 7.36288C3.6829 6.27915 4.1911 5.27695 4.96641 4.50156C5.7418 3.72617 6.74408 3.21806 7.82773 3.05088L10.0203 2.71397C10.3803 2.65818 10.7229 2.51573 11.0175 2.30013L12.8039 0.991133C13.6888 0.342109 14.7576 -0.0078125 15.855 -0.0078125C16.9524 -0.0078125 18.0212 0.342109 18.9061 0.991133ZM14.5133 3.31653L12.7288 4.62553C12.0579 5.11645 11.2789 5.43925 10.4573 5.56682L8.2686 5.90177C7.79094 5.97517 7.34922 6.19899 7.00751 6.5407C6.6658 6.8824 6.44198 7.32413 6.36858 7.80178L6.03363 9.98858C5.90607 10.8101 5.58326 11.5891 5.09235 12.2601L3.78335 14.0465C3.49836 14.4358 3.3447 14.9057 3.3447 15.3882C3.3447 15.8707 3.49836 16.3406 3.78335 16.7299L5.09235 18.5144C5.58515 19.1843 5.90855 19.9639 6.03363 20.7859L6.36858 22.9746C6.51873 23.9544 7.28873 24.7244 8.2686 24.8746L10.4554 25.2095C11.2769 25.3371 12.0559 25.66 12.7269 26.1509L14.5133 27.4599C15.3102 28.047 16.3978 28.047 17.1967 27.4599L18.9812 26.1509C19.6522 25.66 20.4312 25.3371 21.2527 25.2095L23.4414 24.8746C23.919 24.8012 24.3607 24.5773 24.7024 24.2356C25.0442 23.8939 25.268 23.4522 25.3414 22.9746L25.6763 20.7878C25.8039 19.9662 26.1267 19.1873 26.6177 18.5163L27.9267 16.7299C28.2117 16.3406 28.3653 15.8707 28.3653 15.3882C28.3653 14.9057 28.2117 14.4358 27.9267 14.0465L26.6177 12.262C26.1267 11.591 25.8039 10.8121 25.6763 9.99047L25.3414 7.80178C25.268 7.32413 25.0442 6.8824 24.7024 6.5407C24.3607 6.19899 23.919 5.97517 23.4414 5.90177L21.2546 5.56682C20.4331 5.43925 19.6541 5.11645 18.9831 4.62553L17.1967 3.31653C16.8074 3.03155 16.3374 2.87789 15.855 2.87789C15.3725 2.87789 14.9026 3.03155 14.5133 3.31653ZM22.169 13.0416L14.9502 20.2604C14.6795 20.5307 14.3126 20.6826 13.93 20.6826C13.5474 20.6826 13.1804 20.5307 12.9097 20.2604L9.54098 16.8916C9.28568 16.6179 9.14657 16.2559 9.15298 15.8817C9.15949 15.5075 9.311 15.1504 9.57563 14.8858C9.84025 14.6212 10.1974 14.4696 10.5716 14.4631C10.9458 14.4566 11.3079 14.5957 11.5815 14.8511L13.93 17.1996L20.1285 11.0011C20.4021 10.7457 20.7642 10.6066 21.1385 10.6131C21.5126 10.6196 21.8697 10.7712 22.1343 11.0358C22.399 11.3004 22.5505 11.6575 22.557 12.0317C22.5634 12.4059 22.4244 12.7679 22.169 13.0416Z" fill="#FCFCFD"/>
</g>
</svg>
